<?xml version="1.0" encoding="utf-8" standalone="no"?>
<!DOCTYPE svg PUBLIC "-//W3C//DTD SVG 1.1//EN"
  "http://www.w3.org/Graphics/SVG/1.1/DTD/svg11.dtd">
<svg xmlns:xlink="http://www.w3.org/1999/xlink" width="460.8pt" height="345.6pt" viewBox="0 0 460.8 345.6" xmlns="http://www.w3.org/2000/svg" version="1.1">
 <metadata>
  <rdf:RDF xmlns:dc="http://purl.org/dc/elements/1.1/" xmlns:cc="http://creativecommons.org/ns#" xmlns:rdf="http://www.w3.org/1999/02/22-rdf-syntax-ns#">
   <cc:Work>
    <dc:type rdf:resource="http://purl.org/dc/dcmitype/StillImage"/>
    <dc:date>2022-09-01T15:41:47.807661</dc:date>
    <dc:format>image/svg+xml</dc:format>
    <dc:creator>
     <cc:Agent>
      <dc:title>Matplotlib v3.5.3, https://matplotlib.org/</dc:title>
     </cc:Agent>
    </dc:creator>
   </cc:Work>
  </rdf:RDF>
 </metadata>
 <defs>
  <style type="text/css">*{stroke-linejoin: round; stroke-linecap: butt}</style>
 </defs>
 <g id="figure_1">
  <g id="patch_1">
   <path d="M 0 345.6 
L 460.8 345.6 
L 460.8 0 
L 0 0 
z
" style="fill: #ffffff"/>
  </g>
  <g id="axes_1">
   <g id="patch_2">
    <path d="M 47.82125 266.181211 
L 442.590612 266.181211 
L 442.590612 26.88 
L 47.82125 26.88 
z
" style="fill: #ffffff"/>
   </g>
   <g id="matplotlib.axis_1">
    <g id="xtick_1">
     <g id="line2d_1">
      <defs>
       <path id="m49650f83b8" d="M 0 0 
L 0 3.5 
" style="stroke: #000000; stroke-width: 0.8"/>
      </defs>
      <g>
       <use xlink:href="#m49650f83b8" x="65.765312" y="266.181211" style="stroke: #000000; stroke-width: 0.8"/>
      </g>
     </g>
     <g id="text_1">
      <!-- 03.11.2021 -->
      <g transform="translate(47.473343 319.0404)rotate(-45)scale(0.1 -0.1)">
       <defs>
        <path id="DejaVuSans-30" d="M 2034 4250 
Q 1547 4250 1301 3770 
Q 1056 3291 1056 2328 
Q 1056 1369 1301 889 
Q 1547 409 2034 409 
Q 2525 409 2770 889 
Q 3016 1369 3016 2328 
Q 3016 3291 2770 3770 
Q 2525 4250 2034 4250 
z
M 2034 4750 
Q 2819 4750 3233 4129 
Q 3647 3509 3647 2328 
Q 3647 1150 3233 529 
Q 2819 -91 2034 -91 
Q 1250 -91 836 529 
Q 422 1150 422 2328 
Q 422 3509 836 4129 
Q 1250 4750 2034 4750 
z
" transform="scale(0.015625)"/>
        <path id="DejaVuSans-33" d="M 2597 2516 
Q 3050 2419 3304 2112 
Q 3559 1806 3559 1356 
Q 3559 666 3084 287 
Q 2609 -91 1734 -91 
Q 1441 -91 1130 -33 
Q 819 25 488 141 
L 488 750 
Q 750 597 1062 519 
Q 1375 441 1716 441 
Q 2309 441 2620 675 
Q 2931 909 2931 1356 
Q 2931 1769 2642 2001 
Q 2353 2234 1838 2234 
L 1294 2234 
L 1294 2753 
L 1863 2753 
Q 2328 2753 2575 2939 
Q 2822 3125 2822 3475 
Q 2822 3834 2567 4026 
Q 2313 4219 1838 4219 
Q 1578 4219 1281 4162 
Q 984 4106 628 3988 
L 628 4550 
Q 988 4650 1302 4700 
Q 1616 4750 1894 4750 
Q 2613 4750 3031 4423 
Q 3450 4097 3450 3541 
Q 3450 3153 3228 2886 
Q 3006 2619 2597 2516 
z
" transform="scale(0.015625)"/>
        <path id="DejaVuSans-2e" d="M 684 794 
L 1344 794 
L 1344 0 
L 684 0 
L 684 794 
z
" transform="scale(0.015625)"/>
        <path id="DejaVuSans-31" d="M 794 531 
L 1825 531 
L 1825 4091 
L 703 3866 
L 703 4441 
L 1819 4666 
L 2450 4666 
L 2450 531 
L 3481 531 
L 3481 0 
L 794 0 
L 794 531 
z
" transform="scale(0.015625)"/>
        <path id="DejaVuSans-32" d="M 1228 531 
L 3431 531 
L 3431 0 
L 469 0 
L 469 531 
Q 828 903 1448 1529 
Q 2069 2156 2228 2338 
Q 2531 2678 2651 2914 
Q 2772 3150 2772 3378 
Q 2772 3750 2511 3984 
Q 2250 4219 1831 4219 
Q 1534 4219 1204 4116 
Q 875 4013 500 3803 
L 500 4441 
Q 881 4594 1212 4672 
Q 1544 4750 1819 4750 
Q 2544 4750 2975 4387 
Q 3406 4025 3406 3419 
Q 3406 3131 3298 2873 
Q 3191 2616 2906 2266 
Q 2828 2175 2409 1742 
Q 1991 1309 1228 531 
z
" transform="scale(0.015625)"/>
       </defs>
       <use xlink:href="#DejaVuSans-30"/>
       <use xlink:href="#DejaVuSans-33" x="63.623047"/>
       <use xlink:href="#DejaVuSans-2e" x="127.246094"/>
       <use xlink:href="#DejaVuSans-31" x="159.033203"/>
       <use xlink:href="#DejaVuSans-31" x="222.65625"/>
       <use xlink:href="#DejaVuSans-2e" x="286.279297"/>
       <use xlink:href="#DejaVuSans-32" x="318.066406"/>
       <use xlink:href="#DejaVuSans-30" x="381.689453"/>
       <use xlink:href="#DejaVuSans-32" x="445.3125"/>
       <use xlink:href="#DejaVuSans-31" x="508.935547"/>
      </g>
     </g>
    </g>
    <g id="xtick_2">
     <g id="line2d_2">
      <g>
       <use xlink:href="#m49650f83b8" x="82.078095" y="266.181211" style="stroke: #000000; stroke-width: 0.8"/>
      </g>
     </g>
     <g id="text_2">
      <!-- 12.11.2021 -->
      <g transform="translate(63.786127 319.0404)rotate(-45)scale(0.1 -0.1)">
       <use xlink:href="#DejaVuSans-31"/>
       <use xlink:href="#DejaVuSans-32" x="63.623047"/>
       <use xlink:href="#DejaVuSans-2e" x="127.246094"/>
       <use xlink:href="#DejaVuSans-31" x="159.033203"/>
       <use xlink:href="#DejaVuSans-31" x="222.65625"/>
       <use xlink:href="#DejaVuSans-2e" x="286.279297"/>
       <use xlink:href="#DejaVuSans-32" x="318.066406"/>
       <use xlink:href="#DejaVuSans-30" x="381.689453"/>
       <use xlink:href="#DejaVuSans-32" x="445.3125"/>
       <use xlink:href="#DejaVuSans-31" x="508.935547"/>
      </g>
     </g>
    </g>
    <g id="xtick_3">
     <g id="line2d_3">
      <g>
       <use xlink:href="#m49650f83b8" x="98.390879" y="266.181211" style="stroke: #000000; stroke-width: 0.8"/>
      </g>
     </g>
     <g id="text_3">
      <!-- 19.11.2021 -->
      <g transform="translate(80.09891 319.0404)rotate(-45)scale(0.1 -0.1)">
       <defs>
        <path id="DejaVuSans-39" d="M 703 97 
L 703 672 
Q 941 559 1184 500 
Q 1428 441 1663 441 
Q 2288 441 2617 861 
Q 2947 1281 2994 2138 
Q 2813 1869 2534 1725 
Q 2256 1581 1919 1581 
Q 1219 1581 811 2004 
Q 403 2428 403 3163 
Q 403 3881 828 4315 
Q 1253 4750 1959 4750 
Q 2769 4750 3195 4129 
Q 3622 3509 3622 2328 
Q 3622 1225 3098 567 
Q 2575 -91 1691 -91 
Q 1453 -91 1209 -44 
Q 966 3 703 97 
z
M 1959 2075 
Q 2384 2075 2632 2365 
Q 2881 2656 2881 3163 
Q 2881 3666 2632 3958 
Q 2384 4250 1959 4250 
Q 1534 4250 1286 3958 
Q 1038 3666 1038 3163 
Q 1038 2656 1286 2365 
Q 1534 2075 1959 2075 
z
" transform="scale(0.015625)"/>
       </defs>
       <use xlink:href="#DejaVuSans-31"/>
       <use xlink:href="#DejaVuSans-39" x="63.623047"/>
       <use xlink:href="#DejaVuSans-2e" x="127.246094"/>
       <use xlink:href="#DejaVuSans-31" x="159.033203"/>
       <use xlink:href="#DejaVuSans-31" x="222.65625"/>
       <use xlink:href="#DejaVuSans-2e" x="286.279297"/>
       <use xlink:href="#DejaVuSans-32" x="318.066406"/>
       <use xlink:href="#DejaVuSans-30" x="381.689453"/>
       <use xlink:href="#DejaVuSans-32" x="445.3125"/>
       <use xlink:href="#DejaVuSans-31" x="508.935547"/>
      </g>
     </g>
    </g>
    <g id="xtick_4">
     <g id="line2d_4">
      <g>
       <use xlink:href="#m49650f83b8" x="114.703663" y="266.181211" style="stroke: #000000; stroke-width: 0.8"/>
      </g>
     </g>
     <g id="text_4">
      <!-- 26.11.2021 -->
      <g transform="translate(96.411694 319.0404)rotate(-45)scale(0.1 -0.1)">
       <defs>
        <path id="DejaVuSans-36" d="M 2113 2584 
Q 1688 2584 1439 2293 
Q 1191 2003 1191 1497 
Q 1191 994 1439 701 
Q 1688 409 2113 409 
Q 2538 409 2786 701 
Q 3034 994 3034 1497 
Q 3034 2003 2786 2293 
Q 2538 2584 2113 2584 
z
M 3366 4563 
L 3366 3988 
Q 3128 4100 2886 4159 
Q 2644 4219 2406 4219 
Q 1781 4219 1451 3797 
Q 1122 3375 1075 2522 
Q 1259 2794 1537 2939 
Q 1816 3084 2150 3084 
Q 2853 3084 3261 2657 
Q 3669 2231 3669 1497 
Q 3669 778 3244 343 
Q 2819 -91 2113 -91 
Q 1303 -91 875 529 
Q 447 1150 447 2328 
Q 447 3434 972 4092 
Q 1497 4750 2381 4750 
Q 2619 4750 2861 4703 
Q 3103 4656 3366 4563 
z
" transform="scale(0.015625)"/>
       </defs>
       <use xlink:href="#DejaVuSans-32"/>
       <use xlink:href="#DejaVuSans-36" x="63.623047"/>
       <use xlink:href="#DejaVuSans-2e" x="127.246094"/>
       <use xlink:href="#DejaVuSans-31" x="159.033203"/>
       <use xlink:href="#DejaVuSans-31" x="222.65625"/>
       <use xlink:href="#DejaVuSans-2e" x="286.279297"/>
       <use xlink:href="#DejaVuSans-32" x="318.066406"/>
       <use xlink:href="#DejaVuSans-30" x="381.689453"/>
       <use xlink:href="#DejaVuSans-32" x="445.3125"/>
       <use xlink:href="#DejaVuSans-31" x="508.935547"/>
      </g>
     </g>
    </g>
    <g id="xtick_5">
     <g id="line2d_5">
      <g>
       <use xlink:href="#m49650f83b8" x="131.016446" y="266.181211" style="stroke: #000000; stroke-width: 0.8"/>
      </g>
     </g>
     <g id="text_5">
      <!-- 04.12.2021 -->
      <g transform="translate(112.724478 319.0404)rotate(-45)scale(0.1 -0.1)">
       <defs>
        <path id="DejaVuSans-34" d="M 2419 4116 
L 825 1625 
L 2419 1625 
L 2419 4116 
z
M 2253 4666 
L 3047 4666 
L 3047 1625 
L 3713 1625 
L 3713 1100 
L 3047 1100 
L 3047 0 
L 2419 0 
L 2419 1100 
L 313 1100 
L 313 1709 
L 2253 4666 
z
" transform="scale(0.015625)"/>
       </defs>
       <use xlink:href="#DejaVuSans-30"/>
       <use xlink:href="#DejaVuSans-34" x="63.623047"/>
       <use xlink:href="#DejaVuSans-2e" x="127.246094"/>
       <use xlink:href="#DejaVuSans-31" x="159.033203"/>
       <use xlink:href="#DejaVuSans-32" x="222.65625"/>
       <use xlink:href="#DejaVuSans-2e" x="286.279297"/>
       <use xlink:href="#DejaVuSans-32" x="318.066406"/>
       <use xlink:href="#DejaVuSans-30" x="381.689453"/>
       <use xlink:href="#DejaVuSans-32" x="445.3125"/>
       <use xlink:href="#DejaVuSans-31" x="508.935547"/>
      </g>
     </g>
    </g>
    <g id="xtick_6">
     <g id="line2d_6">
      <g>
       <use xlink:href="#m49650f83b8" x="147.32923" y="266.181211" style="stroke: #000000; stroke-width: 0.8"/>
      </g>
     </g>
     <g id="text_6">
      <!-- 12.12.2021 -->
      <g transform="translate(129.037261 319.0404)rotate(-45)scale(0.1 -0.1)">
       <use xlink:href="#DejaVuSans-31"/>
       <use xlink:href="#DejaVuSans-32" x="63.623047"/>
       <use xlink:href="#DejaVuSans-2e" x="127.246094"/>
       <use xlink:href="#DejaVuSans-31" x="159.033203"/>
       <use xlink:href="#DejaVuSans-32" x="222.65625"/>
       <use xlink:href="#DejaVuSans-2e" x="286.279297"/>
       <use xlink:href="#DejaVuSans-32" x="318.066406"/>
       <use xlink:href="#DejaVuSans-30" x="381.689453"/>
       <use xlink:href="#DejaVuSans-32" x="445.3125"/>
       <use xlink:href="#DejaVuSans-31" x="508.935547"/>
      </g>
     </g>
    </g>
    <g id="xtick_7">
     <g id="line2d_7">
      <g>
       <use xlink:href="#m49650f83b8" x="163.642013" y="266.181211" style="stroke: #000000; stroke-width: 0.8"/>
      </g>
     </g>
     <g id="text_7">
      <!-- 24.12.2021 -->
      <g transform="translate(145.350045 319.0404)rotate(-45)scale(0.1 -0.1)">
       <use xlink:href="#DejaVuSans-32"/>
       <use xlink:href="#DejaVuSans-34" x="63.623047"/>
       <use xlink:href="#DejaVuSans-2e" x="127.246094"/>
       <use xlink:href="#DejaVuSans-31" x="159.033203"/>
       <use xlink:href="#DejaVuSans-32" x="222.65625"/>
       <use xlink:href="#DejaVuSans-2e" x="286.279297"/>
       <use xlink:href="#DejaVuSans-32" x="318.066406"/>
       <use xlink:href="#DejaVuSans-30" x="381.689453"/>
       <use xlink:href="#DejaVuSans-32" x="445.3125"/>
       <use xlink:href="#DejaVuSans-31" x="508.935547"/>
      </g>
     </g>
    </g>
    <g id="xtick_8">
     <g id="line2d_8">
      <g>
       <use xlink:href="#m49650f83b8" x="179.954797" y="266.181211" style="stroke: #000000; stroke-width: 0.8"/>
      </g>
     </g>
     <g id="text_8">
      <!-- 31.12.2021 -->
      <g transform="translate(161.662828 319.0404)rotate(-45)scale(0.1 -0.1)">
       <use xlink:href="#DejaVuSans-33"/>
       <use xlink:href="#DejaVuSans-31" x="63.623047"/>
       <use xlink:href="#DejaVuSans-2e" x="127.246094"/>
       <use xlink:href="#DejaVuSans-31" x="159.033203"/>
       <use xlink:href="#DejaVuSans-32" x="222.65625"/>
       <use xlink:href="#DejaVuSans-2e" x="286.279297"/>
       <use xlink:href="#DejaVuSans-32" x="318.066406"/>
       <use xlink:href="#DejaVuSans-30" x="381.689453"/>
       <use xlink:href="#DejaVuSans-32" x="445.3125"/>
       <use xlink:href="#DejaVuSans-31" x="508.935547"/>
      </g>
     </g>
    </g>
    <g id="xtick_9">
     <g id="line2d_9">
      <g>
       <use xlink:href="#m49650f83b8" x="196.26758" y="266.181211" style="stroke: #000000; stroke-width: 0.8"/>
      </g>
     </g>
     <g id="text_9">
      <!-- 09.01.2022 -->
      <g transform="translate(177.975612 319.0404)rotate(-45)scale(0.1 -0.1)">
       <use xlink:href="#DejaVuSans-30"/>
       <use xlink:href="#DejaVuSans-39" x="63.623047"/>
       <use xlink:href="#DejaVuSans-2e" x="127.246094"/>
       <use xlink:href="#DejaVuSans-30" x="159.033203"/>
       <use xlink:href="#DejaVuSans-31" x="222.65625"/>
       <use xlink:href="#DejaVuSans-2e" x="286.279297"/>
       <use xlink:href="#DejaVuSans-32" x="318.066406"/>
       <use xlink:href="#DejaVuSans-30" x="381.689453"/>
       <use xlink:href="#DejaVuSans-32" x="445.3125"/>
       <use xlink:href="#DejaVuSans-32" x="508.935547"/>
      </g>
     </g>
    </g>
    <g id="xtick_10">
     <g id="line2d_10">
      <g>
       <use xlink:href="#m49650f83b8" x="212.580364" y="266.181211" style="stroke: #000000; stroke-width: 0.8"/>
      </g>
     </g>
     <g id="text_10">
      <!-- 18.01.2022 -->
      <g transform="translate(194.288395 319.0404)rotate(-45)scale(0.1 -0.1)">
       <defs>
        <path id="DejaVuSans-38" d="M 2034 2216 
Q 1584 2216 1326 1975 
Q 1069 1734 1069 1313 
Q 1069 891 1326 650 
Q 1584 409 2034 409 
Q 2484 409 2743 651 
Q 3003 894 3003 1313 
Q 3003 1734 2745 1975 
Q 2488 2216 2034 2216 
z
M 1403 2484 
Q 997 2584 770 2862 
Q 544 3141 544 3541 
Q 544 4100 942 4425 
Q 1341 4750 2034 4750 
Q 2731 4750 3128 4425 
Q 3525 4100 3525 3541 
Q 3525 3141 3298 2862 
Q 3072 2584 2669 2484 
Q 3125 2378 3379 2068 
Q 3634 1759 3634 1313 
Q 3634 634 3220 271 
Q 2806 -91 2034 -91 
Q 1263 -91 848 271 
Q 434 634 434 1313 
Q 434 1759 690 2068 
Q 947 2378 1403 2484 
z
M 1172 3481 
Q 1172 3119 1398 2916 
Q 1625 2713 2034 2713 
Q 2441 2713 2670 2916 
Q 2900 3119 2900 3481 
Q 2900 3844 2670 4047 
Q 2441 4250 2034 4250 
Q 1625 4250 1398 4047 
Q 1172 3844 1172 3481 
z
" transform="scale(0.015625)"/>
       </defs>
       <use xlink:href="#DejaVuSans-31"/>
       <use xlink:href="#DejaVuSans-38" x="63.623047"/>
       <use xlink:href="#DejaVuSans-2e" x="127.246094"/>
       <use xlink:href="#DejaVuSans-30" x="159.033203"/>
       <use xlink:href="#DejaVuSans-31" x="222.65625"/>
       <use xlink:href="#DejaVuSans-2e" x="286.279297"/>
       <use xlink:href="#DejaVuSans-32" x="318.066406"/>
       <use xlink:href="#DejaVuSans-30" x="381.689453"/>
       <use xlink:href="#DejaVuSans-32" x="445.3125"/>
       <use xlink:href="#DejaVuSans-32" x="508.935547"/>
      </g>
     </g>
    </g>
    <g id="xtick_11">
     <g id="line2d_11">
      <g>
       <use xlink:href="#m49650f83b8" x="228.893147" y="266.181211" style="stroke: #000000; stroke-width: 0.8"/>
      </g>
     </g>
     <g id="text_11">
      <!-- 27.01.2022 -->
      <g transform="translate(210.601179 319.0404)rotate(-45)scale(0.1 -0.1)">
       <defs>
        <path id="DejaVuSans-37" d="M 525 4666 
L 3525 4666 
L 3525 4397 
L 1831 0 
L 1172 0 
L 2766 4134 
L 525 4134 
L 525 4666 
z
" transform="scale(0.015625)"/>
       </defs>
       <use xlink:href="#DejaVuSans-32"/>
       <use xlink:href="#DejaVuSans-37" x="63.623047"/>
       <use xlink:href="#DejaVuSans-2e" x="127.246094"/>
       <use xlink:href="#DejaVuSans-30" x="159.033203"/>
       <use xlink:href="#DejaVuSans-31" x="222.65625"/>
       <use xlink:href="#DejaVuSans-2e" x="286.279297"/>
       <use xlink:href="#DejaVuSans-32" x="318.066406"/>
       <use xlink:href="#DejaVuSans-30" x="381.689453"/>
       <use xlink:href="#DejaVuSans-32" x="445.3125"/>
       <use xlink:href="#DejaVuSans-32" x="508.935547"/>
      </g>
     </g>
    </g>
    <g id="xtick_12">
     <g id="line2d_12">
      <g>
       <use xlink:href="#m49650f83b8" x="245.205931" y="266.181211" style="stroke: #000000; stroke-width: 0.8"/>
      </g>
     </g>
     <g id="text_12">
      <!-- 12.02.2022 -->
      <g transform="translate(226.913962 319.0404)rotate(-45)scale(0.1 -0.1)">
       <use xlink:href="#DejaVuSans-31"/>
       <use xlink:href="#DejaVuSans-32" x="63.623047"/>
       <use xlink:href="#DejaVuSans-2e" x="127.246094"/>
       <use xlink:href="#DejaVuSans-30" x="159.033203"/>
       <use xlink:href="#DejaVuSans-32" x="222.65625"/>
       <use xlink:href="#DejaVuSans-2e" x="286.279297"/>
       <use xlink:href="#DejaVuSans-32" x="318.066406"/>
       <use xlink:href="#DejaVuSans-30" x="381.689453"/>
       <use xlink:href="#DejaVuSans-32" x="445.3125"/>
       <use xlink:href="#DejaVuSans-32" x="508.935547"/>
      </g>
     </g>
    </g>
    <g id="xtick_13">
     <g id="line2d_13">
      <g>
       <use xlink:href="#m49650f83b8" x="261.518715" y="266.181211" style="stroke: #000000; stroke-width: 0.8"/>
      </g>
     </g>
     <g id="text_13">
      <!-- 20.02.2022 -->
      <g transform="translate(243.226746 319.0404)rotate(-45)scale(0.1 -0.1)">
       <use xlink:href="#DejaVuSans-32"/>
       <use xlink:href="#DejaVuSans-30" x="63.623047"/>
       <use xlink:href="#DejaVuSans-2e" x="127.246094"/>
       <use xlink:href="#DejaVuSans-30" x="159.033203"/>
       <use xlink:href="#DejaVuSans-32" x="222.65625"/>
       <use xlink:href="#DejaVuSans-2e" x="286.279297"/>
       <use xlink:href="#DejaVuSans-32" x="318.066406"/>
       <use xlink:href="#DejaVuSans-30" x="381.689453"/>
       <use xlink:href="#DejaVuSans-32" x="445.3125"/>
       <use xlink:href="#DejaVuSans-32" x="508.935547"/>
      </g>
     </g>
    </g>
    <g id="xtick_14">
     <g id="line2d_14">
      <g>
       <use xlink:href="#m49650f83b8" x="277.831498" y="266.181211" style="stroke: #000000; stroke-width: 0.8"/>
      </g>
     </g>
     <g id="text_14">
      <!-- 27.02.2022 -->
      <g transform="translate(259.53953 319.0404)rotate(-45)scale(0.1 -0.1)">
       <use xlink:href="#DejaVuSans-32"/>
       <use xlink:href="#DejaVuSans-37" x="63.623047"/>
       <use xlink:href="#DejaVuSans-2e" x="127.246094"/>
       <use xlink:href="#DejaVuSans-30" x="159.033203"/>
       <use xlink:href="#DejaVuSans-32" x="222.65625"/>
       <use xlink:href="#DejaVuSans-2e" x="286.279297"/>
       <use xlink:href="#DejaVuSans-32" x="318.066406"/>
       <use xlink:href="#DejaVuSans-30" x="381.689453"/>
       <use xlink:href="#DejaVuSans-32" x="445.3125"/>
       <use xlink:href="#DejaVuSans-32" x="508.935547"/>
      </g>
     </g>
    </g>
    <g id="xtick_15">
     <g id="line2d_15">
      <g>
       <use xlink:href="#m49650f83b8" x="294.144282" y="266.181211" style="stroke: #000000; stroke-width: 0.8"/>
      </g>
     </g>
     <g id="text_15">
      <!-- 07.03.2022 -->
      <g transform="translate(275.852313 319.0404)rotate(-45)scale(0.1 -0.1)">
       <use xlink:href="#DejaVuSans-30"/>
       <use xlink:href="#DejaVuSans-37" x="63.623047"/>
       <use xlink:href="#DejaVuSans-2e" x="127.246094"/>
       <use xlink:href="#DejaVuSans-30" x="159.033203"/>
       <use xlink:href="#DejaVuSans-33" x="222.65625"/>
       <use xlink:href="#DejaVuSans-2e" x="286.279297"/>
       <use xlink:href="#DejaVuSans-32" x="318.066406"/>
       <use xlink:href="#DejaVuSans-30" x="381.689453"/>
       <use xlink:href="#DejaVuSans-32" x="445.3125"/>
       <use xlink:href="#DejaVuSans-32" x="508.935547"/>
      </g>
     </g>
    </g>
    <g id="xtick_16">
     <g id="line2d_16">
      <g>
       <use xlink:href="#m49650f83b8" x="310.457065" y="266.181211" style="stroke: #000000; stroke-width: 0.8"/>
      </g>
     </g>
     <g id="text_16">
      <!-- 14.03.2022 -->
      <g transform="translate(292.165097 319.0404)rotate(-45)scale(0.1 -0.1)">
       <use xlink:href="#DejaVuSans-31"/>
       <use xlink:href="#DejaVuSans-34" x="63.623047"/>
       <use xlink:href="#DejaVuSans-2e" x="127.246094"/>
       <use xlink:href="#DejaVuSans-30" x="159.033203"/>
       <use xlink:href="#DejaVuSans-33" x="222.65625"/>
       <use xlink:href="#DejaVuSans-2e" x="286.279297"/>
       <use xlink:href="#DejaVuSans-32" x="318.066406"/>
       <use xlink:href="#DejaVuSans-30" x="381.689453"/>
       <use xlink:href="#DejaVuSans-32" x="445.3125"/>
       <use xlink:href="#DejaVuSans-32" x="508.935547"/>
      </g>
     </g>
    </g>
    <g id="xtick_17">
     <g id="line2d_17">
      <g>
       <use xlink:href="#m49650f83b8" x="326.769849" y="266.181211" style="stroke: #000000; stroke-width: 0.8"/>
      </g>
     </g>
     <g id="text_17">
      <!-- 21.03.2022 -->
      <g transform="translate(308.47788 319.0404)rotate(-45)scale(0.1 -0.1)">
       <use xlink:href="#DejaVuSans-32"/>
       <use xlink:href="#DejaVuSans-31" x="63.623047"/>
       <use xlink:href="#DejaVuSans-2e" x="127.246094"/>
       <use xlink:href="#DejaVuSans-30" x="159.033203"/>
       <use xlink:href="#DejaVuSans-33" x="222.65625"/>
       <use xlink:href="#DejaVuSans-2e" x="286.279297"/>
       <use xlink:href="#DejaVuSans-32" x="318.066406"/>
       <use xlink:href="#DejaVuSans-30" x="381.689453"/>
       <use xlink:href="#DejaVuSans-32" x="445.3125"/>
       <use xlink:href="#DejaVuSans-32" x="508.935547"/>
      </g>
     </g>
    </g>
    <g id="xtick_18">
     <g id="line2d_18">
      <g>
       <use xlink:href="#m49650f83b8" x="343.082632" y="266.181211" style="stroke: #000000; stroke-width: 0.8"/>
      </g>
     </g>
     <g id="text_18">
      <!-- 28.03.2022 -->
      <g transform="translate(324.790664 319.0404)rotate(-45)scale(0.1 -0.1)">
       <use xlink:href="#DejaVuSans-32"/>
       <use xlink:href="#DejaVuSans-38" x="63.623047"/>
       <use xlink:href="#DejaVuSans-2e" x="127.246094"/>
       <use xlink:href="#DejaVuSans-30" x="159.033203"/>
       <use xlink:href="#DejaVuSans-33" x="222.65625"/>
       <use xlink:href="#DejaVuSans-2e" x="286.279297"/>
       <use xlink:href="#DejaVuSans-32" x="318.066406"/>
       <use xlink:href="#DejaVuSans-30" x="381.689453"/>
       <use xlink:href="#DejaVuSans-32" x="445.3125"/>
       <use xlink:href="#DejaVuSans-32" x="508.935547"/>
      </g>
     </g>
    </g>
    <g id="xtick_19">
     <g id="line2d_19">
      <g>
       <use xlink:href="#m49650f83b8" x="359.395416" y="266.181211" style="stroke: #000000; stroke-width: 0.8"/>
      </g>
     </g>
     <g id="text_19">
      <!-- 06.04.2022 -->
      <g transform="translate(341.103447 319.0404)rotate(-45)scale(0.1 -0.1)">
       <use xlink:href="#DejaVuSans-30"/>
       <use xlink:href="#DejaVuSans-36" x="63.623047"/>
       <use xlink:href="#DejaVuSans-2e" x="127.246094"/>
       <use xlink:href="#DejaVuSans-30" x="159.033203"/>
       <use xlink:href="#DejaVuSans-34" x="222.65625"/>
       <use xlink:href="#DejaVuSans-2e" x="286.279297"/>
       <use xlink:href="#DejaVuSans-32" x="318.066406"/>
       <use xlink:href="#DejaVuSans-30" x="381.689453"/>
       <use xlink:href="#DejaVuSans-32" x="445.3125"/>
       <use xlink:href="#DejaVuSans-32" x="508.935547"/>
      </g>
     </g>
    </g>
    <g id="xtick_20">
     <g id="line2d_20">
      <g>
       <use xlink:href="#m49650f83b8" x="375.708199" y="266.181211" style="stroke: #000000; stroke-width: 0.8"/>
      </g>
     </g>
     <g id="text_20">
      <!-- 21.04.2022 -->
      <g transform="translate(357.416231 319.0404)rotate(-45)scale(0.1 -0.1)">
       <use xlink:href="#DejaVuSans-32"/>
       <use xlink:href="#DejaVuSans-31" x="63.623047"/>
       <use xlink:href="#DejaVuSans-2e" x="127.246094"/>
       <use xlink:href="#DejaVuSans-30" x="159.033203"/>
       <use xlink:href="#DejaVuSans-34" x="222.65625"/>
       <use xlink:href="#DejaVuSans-2e" x="286.279297"/>
       <use xlink:href="#DejaVuSans-32" x="318.066406"/>
       <use xlink:href="#DejaVuSans-30" x="381.689453"/>
       <use xlink:href="#DejaVuSans-32" x="445.3125"/>
       <use xlink:href="#DejaVuSans-32" x="508.935547"/>
      </g>
     </g>
    </g>
    <g id="xtick_21">
     <g id="line2d_21">
      <g>
       <use xlink:href="#m49650f83b8" x="392.020983" y="266.181211" style="stroke: #000000; stroke-width: 0.8"/>
      </g>
     </g>
     <g id="text_21">
      <!-- 30.04.2022 -->
      <g transform="translate(373.729014 319.0404)rotate(-45)scale(0.1 -0.1)">
       <use xlink:href="#DejaVuSans-33"/>
       <use xlink:href="#DejaVuSans-30" x="63.623047"/>
       <use xlink:href="#DejaVuSans-2e" x="127.246094"/>
       <use xlink:href="#DejaVuSans-30" x="159.033203"/>
       <use xlink:href="#DejaVuSans-34" x="222.65625"/>
       <use xlink:href="#DejaVuSans-2e" x="286.279297"/>
       <use xlink:href="#DejaVuSans-32" x="318.066406"/>
       <use xlink:href="#DejaVuSans-30" x="381.689453"/>
       <use xlink:href="#DejaVuSans-32" x="445.3125"/>
       <use xlink:href="#DejaVuSans-32" x="508.935547"/>
      </g>
     </g>
    </g>
    <g id="xtick_22">
     <g id="line2d_22">
      <g>
       <use xlink:href="#m49650f83b8" x="408.333767" y="266.181211" style="stroke: #000000; stroke-width: 0.8"/>
      </g>
     </g>
     <g id="text_22">
      <!-- 09.05.2022 -->
      <g transform="translate(390.041798 319.0404)rotate(-45)scale(0.1 -0.1)">
       <defs>
        <path id="DejaVuSans-35" d="M 691 4666 
L 3169 4666 
L 3169 4134 
L 1269 4134 
L 1269 2991 
Q 1406 3038 1543 3061 
Q 1681 3084 1819 3084 
Q 2600 3084 3056 2656 
Q 3513 2228 3513 1497 
Q 3513 744 3044 326 
Q 2575 -91 1722 -91 
Q 1428 -91 1123 -41 
Q 819 9 494 109 
L 494 744 
Q 775 591 1075 516 
Q 1375 441 1709 441 
Q 2250 441 2565 725 
Q 2881 1009 2881 1497 
Q 2881 1984 2565 2268 
Q 2250 2553 1709 2553 
Q 1456 2553 1204 2497 
Q 953 2441 691 2322 
L 691 4666 
z
" transform="scale(0.015625)"/>
       </defs>
       <use xlink:href="#DejaVuSans-30"/>
       <use xlink:href="#DejaVuSans-39" x="63.623047"/>
       <use xlink:href="#DejaVuSans-2e" x="127.246094"/>
       <use xlink:href="#DejaVuSans-30" x="159.033203"/>
       <use xlink:href="#DejaVuSans-35" x="222.65625"/>
       <use xlink:href="#DejaVuSans-2e" x="286.279297"/>
       <use xlink:href="#DejaVuSans-32" x="318.066406"/>
       <use xlink:href="#DejaVuSans-30" x="381.689453"/>
       <use xlink:href="#DejaVuSans-32" x="445.3125"/>
       <use xlink:href="#DejaVuSans-32" x="508.935547"/>
      </g>
     </g>
    </g>
    <g id="xtick_23">
     <g id="line2d_23">
      <g>
       <use xlink:href="#m49650f83b8" x="424.64655" y="266.181211" style="stroke: #000000; stroke-width: 0.8"/>
      </g>
     </g>
     <g id="text_23">
      <!-- 17.05.2022 -->
      <g transform="translate(406.354582 319.0404)rotate(-45)scale(0.1 -0.1)">
       <use xlink:href="#DejaVuSans-31"/>
       <use xlink:href="#DejaVuSans-37" x="63.623047"/>
       <use xlink:href="#DejaVuSans-2e" x="127.246094"/>
       <use xlink:href="#DejaVuSans-30" x="159.033203"/>
       <use xlink:href="#DejaVuSans-35" x="222.65625"/>
       <use xlink:href="#DejaVuSans-2e" x="286.279297"/>
       <use xlink:href="#DejaVuSans-32" x="318.066406"/>
       <use xlink:href="#DejaVuSans-30" x="381.689453"/>
       <use xlink:href="#DejaVuSans-32" x="445.3125"/>
       <use xlink:href="#DejaVuSans-32" x="508.935547"/>
      </g>
     </g>
    </g>
    <g id="text_24">
     <!-- Dates -->
     <g transform="translate(230.650462 332.109399)scale(0.1 -0.1)">
      <defs>
       <path id="DejaVuSans-44" d="M 1259 4147 
L 1259 519 
L 2022 519 
Q 2988 519 3436 956 
Q 3884 1394 3884 2338 
Q 3884 3275 3436 3711 
Q 2988 4147 2022 4147 
L 1259 4147 
z
M 628 4666 
L 1925 4666 
Q 3281 4666 3915 4102 
Q 4550 3538 4550 2338 
Q 4550 1131 3912 565 
Q 3275 0 1925 0 
L 628 0 
L 628 4666 
z
" transform="scale(0.015625)"/>
       <path id="DejaVuSans-61" d="M 2194 1759 
Q 1497 1759 1228 1600 
Q 959 1441 959 1056 
Q 959 750 1161 570 
Q 1363 391 1709 391 
Q 2188 391 2477 730 
Q 2766 1069 2766 1631 
L 2766 1759 
L 2194 1759 
z
M 3341 1997 
L 3341 0 
L 2766 0 
L 2766 531 
Q 2569 213 2275 61 
Q 1981 -91 1556 -91 
Q 1019 -91 701 211 
Q 384 513 384 1019 
Q 384 1609 779 1909 
Q 1175 2209 1959 2209 
L 2766 2209 
L 2766 2266 
Q 2766 2663 2505 2880 
Q 2244 3097 1772 3097 
Q 1472 3097 1187 3025 
Q 903 2953 641 2809 
L 641 3341 
Q 956 3463 1253 3523 
Q 1550 3584 1831 3584 
Q 2591 3584 2966 3190 
Q 3341 2797 3341 1997 
z
" transform="scale(0.015625)"/>
       <path id="DejaVuSans-74" d="M 1172 4494 
L 1172 3500 
L 2356 3500 
L 2356 3053 
L 1172 3053 
L 1172 1153 
Q 1172 725 1289 603 
Q 1406 481 1766 481 
L 2356 481 
L 2356 0 
L 1766 0 
Q 1100 0 847 248 
Q 594 497 594 1153 
L 594 3053 
L 172 3053 
L 172 3500 
L 594 3500 
L 594 4494 
L 1172 4494 
z
" transform="scale(0.015625)"/>
       <path id="DejaVuSans-65" d="M 3597 1894 
L 3597 1613 
L 953 1613 
Q 991 1019 1311 708 
Q 1631 397 2203 397 
Q 2534 397 2845 478 
Q 3156 559 3463 722 
L 3463 178 
Q 3153 47 2828 -22 
Q 2503 -91 2169 -91 
Q 1331 -91 842 396 
Q 353 884 353 1716 
Q 353 2575 817 3079 
Q 1281 3584 2069 3584 
Q 2775 3584 3186 3129 
Q 3597 2675 3597 1894 
z
M 3022 2063 
Q 3016 2534 2758 2815 
Q 2500 3097 2075 3097 
Q 1594 3097 1305 2825 
Q 1016 2553 972 2059 
L 3022 2063 
z
" transform="scale(0.015625)"/>
       <path id="DejaVuSans-73" d="M 2834 3397 
L 2834 2853 
Q 2591 2978 2328 3040 
Q 2066 3103 1784 3103 
Q 1356 3103 1142 2972 
Q 928 2841 928 2578 
Q 928 2378 1081 2264 
Q 1234 2150 1697 2047 
L 1894 2003 
Q 2506 1872 2764 1633 
Q 3022 1394 3022 966 
Q 3022 478 2636 193 
Q 2250 -91 1575 -91 
Q 1294 -91 989 -36 
Q 684 19 347 128 
L 347 722 
Q 666 556 975 473 
Q 1284 391 1588 391 
Q 1994 391 2212 530 
Q 2431 669 2431 922 
Q 2431 1156 2273 1281 
Q 2116 1406 1581 1522 
L 1381 1569 
Q 847 1681 609 1914 
Q 372 2147 372 2553 
Q 372 3047 722 3315 
Q 1072 3584 1716 3584 
Q 2034 3584 2315 3537 
Q 2597 3491 2834 3397 
z
" transform="scale(0.015625)"/>
      </defs>
      <use xlink:href="#DejaVuSans-44"/>
      <use xlink:href="#DejaVuSans-61" x="77.001953"/>
      <use xlink:href="#DejaVuSans-74" x="138.28125"/>
      <use xlink:href="#DejaVuSans-65" x="177.490234"/>
      <use xlink:href="#DejaVuSans-73" x="239.013672"/>
     </g>
    </g>
   </g>
   <g id="matplotlib.axis_2">
    <g id="ytick_1">
     <g id="line2d_24">
      <defs>
       <path id="m13ee82960e" d="M 0 0 
L -3.5 0 
" style="stroke: #000000; stroke-width: 0.8"/>
      </defs>
      <g>
       <use xlink:href="#m13ee82960e" x="47.82125" y="251.766891" style="stroke: #000000; stroke-width: 0.8"/>
      </g>
     </g>
     <g id="text_25">
      <!-- 0.0 -->
      <g transform="translate(24.918125 255.56611)scale(0.1 -0.1)">
       <use xlink:href="#DejaVuSans-30"/>
       <use xlink:href="#DejaVuSans-2e" x="63.623047"/>
       <use xlink:href="#DejaVuSans-30" x="95.410156"/>
      </g>
     </g>
    </g>
    <g id="ytick_2">
     <g id="line2d_25">
      <g>
       <use xlink:href="#m13ee82960e" x="47.82125" y="224.838624" style="stroke: #000000; stroke-width: 0.8"/>
      </g>
     </g>
     <g id="text_26">
      <!-- 0.1 -->
      <g transform="translate(24.918125 228.637843)scale(0.1 -0.1)">
       <use xlink:href="#DejaVuSans-30"/>
       <use xlink:href="#DejaVuSans-2e" x="63.623047"/>
       <use xlink:href="#DejaVuSans-31" x="95.410156"/>
      </g>
     </g>
    </g>
    <g id="ytick_3">
     <g id="line2d_26">
      <g>
       <use xlink:href="#m13ee82960e" x="47.82125" y="197.910356" style="stroke: #000000; stroke-width: 0.8"/>
      </g>
     </g>
     <g id="text_27">
      <!-- 0.2 -->
      <g transform="translate(24.918125 201.709575)scale(0.1 -0.1)">
       <use xlink:href="#DejaVuSans-30"/>
       <use xlink:href="#DejaVuSans-2e" x="63.623047"/>
       <use xlink:href="#DejaVuSans-32" x="95.410156"/>
      </g>
     </g>
    </g>
    <g id="ytick_4">
     <g id="line2d_27">
      <g>
       <use xlink:href="#m13ee82960e" x="47.82125" y="170.982088" style="stroke: #000000; stroke-width: 0.8"/>
      </g>
     </g>
     <g id="text_28">
      <!-- 0.3 -->
      <g transform="translate(24.918125 174.781307)scale(0.1 -0.1)">
       <use xlink:href="#DejaVuSans-30"/>
       <use xlink:href="#DejaVuSans-2e" x="63.623047"/>
       <use xlink:href="#DejaVuSans-33" x="95.410156"/>
      </g>
     </g>
    </g>
    <g id="ytick_5">
     <g id="line2d_28">
      <g>
       <use xlink:href="#m13ee82960e" x="47.82125" y="144.053821" style="stroke: #000000; stroke-width: 0.8"/>
      </g>
     </g>
     <g id="text_29">
      <!-- 0.4 -->
      <g transform="translate(24.918125 147.853039)scale(0.1 -0.1)">
       <use xlink:href="#DejaVuSans-30"/>
       <use xlink:href="#DejaVuSans-2e" x="63.623047"/>
       <use xlink:href="#DejaVuSans-34" x="95.410156"/>
      </g>
     </g>
    </g>
    <g id="ytick_6">
     <g id="line2d_29">
      <g>
       <use xlink:href="#m13ee82960e" x="47.82125" y="117.125553" style="stroke: #000000; stroke-width: 0.8"/>
      </g>
     </g>
     <g id="text_30">
      <!-- 0.5 -->
      <g transform="translate(24.918125 120.924772)scale(0.1 -0.1)">
       <use xlink:href="#DejaVuSans-30"/>
       <use xlink:href="#DejaVuSans-2e" x="63.623047"/>
       <use xlink:href="#DejaVuSans-35" x="95.410156"/>
      </g>
     </g>
    </g>
    <g id="ytick_7">
     <g id="line2d_30">
      <g>
       <use xlink:href="#m13ee82960e" x="47.82125" y="90.197285" style="stroke: #000000; stroke-width: 0.8"/>
      </g>
     </g>
     <g id="text_31">
      <!-- 0.6 -->
      <g transform="translate(24.918125 93.996504)scale(0.1 -0.1)">
       <use xlink:href="#DejaVuSans-30"/>
       <use xlink:href="#DejaVuSans-2e" x="63.623047"/>
       <use xlink:href="#DejaVuSans-36" x="95.410156"/>
      </g>
     </g>
    </g>
    <g id="ytick_8">
     <g id="line2d_31">
      <g>
       <use xlink:href="#m13ee82960e" x="47.82125" y="63.269017" style="stroke: #000000; stroke-width: 0.8"/>
      </g>
     </g>
     <g id="text_32">
      <!-- 0.7 -->
      <g transform="translate(24.918125 67.068236)scale(0.1 -0.1)">
       <use xlink:href="#DejaVuSans-30"/>
       <use xlink:href="#DejaVuSans-2e" x="63.623047"/>
       <use xlink:href="#DejaVuSans-37" x="95.410156"/>
      </g>
     </g>
    </g>
    <g id="ytick_9">
     <g id="line2d_32">
      <g>
       <use xlink:href="#m13ee82960e" x="47.82125" y="36.34075" style="stroke: #000000; stroke-width: 0.8"/>
      </g>
     </g>
     <g id="text_33">
      <!-- 0.8 -->
      <g transform="translate(24.918125 40.139969)scale(0.1 -0.1)">
       <use xlink:href="#DejaVuSans-30"/>
       <use xlink:href="#DejaVuSans-2e" x="63.623047"/>
       <use xlink:href="#DejaVuSans-38" x="95.410156"/>
      </g>
     </g>
    </g>
    <g id="text_34">
     <!-- occurrences/article_number -->
     <g transform="translate(18.560313 216.225918)rotate(-90)scale(0.1 -0.1)">
      <defs>
       <path id="DejaVuSans-6f" d="M 1959 3097 
Q 1497 3097 1228 2736 
Q 959 2375 959 1747 
Q 959 1119 1226 758 
Q 1494 397 1959 397 
Q 2419 397 2687 759 
Q 2956 1122 2956 1747 
Q 2956 2369 2687 2733 
Q 2419 3097 1959 3097 
z
M 1959 3584 
Q 2709 3584 3137 3096 
Q 3566 2609 3566 1747 
Q 3566 888 3137 398 
Q 2709 -91 1959 -91 
Q 1206 -91 779 398 
Q 353 888 353 1747 
Q 353 2609 779 3096 
Q 1206 3584 1959 3584 
z
" transform="scale(0.015625)"/>
       <path id="DejaVuSans-63" d="M 3122 3366 
L 3122 2828 
Q 2878 2963 2633 3030 
Q 2388 3097 2138 3097 
Q 1578 3097 1268 2742 
Q 959 2388 959 1747 
Q 959 1106 1268 751 
Q 1578 397 2138 397 
Q 2388 397 2633 464 
Q 2878 531 3122 666 
L 3122 134 
Q 2881 22 2623 -34 
Q 2366 -91 2075 -91 
Q 1284 -91 818 406 
Q 353 903 353 1747 
Q 353 2603 823 3093 
Q 1294 3584 2113 3584 
Q 2378 3584 2631 3529 
Q 2884 3475 3122 3366 
z
" transform="scale(0.015625)"/>
       <path id="DejaVuSans-75" d="M 544 1381 
L 544 3500 
L 1119 3500 
L 1119 1403 
Q 1119 906 1312 657 
Q 1506 409 1894 409 
Q 2359 409 2629 706 
Q 2900 1003 2900 1516 
L 2900 3500 
L 3475 3500 
L 3475 0 
L 2900 0 
L 2900 538 
Q 2691 219 2414 64 
Q 2138 -91 1772 -91 
Q 1169 -91 856 284 
Q 544 659 544 1381 
z
M 1991 3584 
L 1991 3584 
z
" transform="scale(0.015625)"/>
       <path id="DejaVuSans-72" d="M 2631 2963 
Q 2534 3019 2420 3045 
Q 2306 3072 2169 3072 
Q 1681 3072 1420 2755 
Q 1159 2438 1159 1844 
L 1159 0 
L 581 0 
L 581 3500 
L 1159 3500 
L 1159 2956 
Q 1341 3275 1631 3429 
Q 1922 3584 2338 3584 
Q 2397 3584 2469 3576 
Q 2541 3569 2628 3553 
L 2631 2963 
z
" transform="scale(0.015625)"/>
       <path id="DejaVuSans-6e" d="M 3513 2113 
L 3513 0 
L 2938 0 
L 2938 2094 
Q 2938 2591 2744 2837 
Q 2550 3084 2163 3084 
Q 1697 3084 1428 2787 
Q 1159 2491 1159 1978 
L 1159 0 
L 581 0 
L 581 3500 
L 1159 3500 
L 1159 2956 
Q 1366 3272 1645 3428 
Q 1925 3584 2291 3584 
Q 2894 3584 3203 3211 
Q 3513 2838 3513 2113 
z
" transform="scale(0.015625)"/>
       <path id="DejaVuSans-2f" d="M 1625 4666 
L 2156 4666 
L 531 -594 
L 0 -594 
L 1625 4666 
z
" transform="scale(0.015625)"/>
       <path id="DejaVuSans-69" d="M 603 3500 
L 1178 3500 
L 1178 0 
L 603 0 
L 603 3500 
z
M 603 4863 
L 1178 4863 
L 1178 4134 
L 603 4134 
L 603 4863 
z
" transform="scale(0.015625)"/>
       <path id="DejaVuSans-6c" d="M 603 4863 
L 1178 4863 
L 1178 0 
L 603 0 
L 603 4863 
z
" transform="scale(0.015625)"/>
       <path id="DejaVuSans-5f" d="M 3263 -1063 
L 3263 -1509 
L -63 -1509 
L -63 -1063 
L 3263 -1063 
z
" transform="scale(0.015625)"/>
       <path id="DejaVuSans-6d" d="M 3328 2828 
Q 3544 3216 3844 3400 
Q 4144 3584 4550 3584 
Q 5097 3584 5394 3201 
Q 5691 2819 5691 2113 
L 5691 0 
L 5113 0 
L 5113 2094 
Q 5113 2597 4934 2840 
Q 4756 3084 4391 3084 
Q 3944 3084 3684 2787 
Q 3425 2491 3425 1978 
L 3425 0 
L 2847 0 
L 2847 2094 
Q 2847 2600 2669 2842 
Q 2491 3084 2119 3084 
Q 1678 3084 1418 2786 
Q 1159 2488 1159 1978 
L 1159 0 
L 581 0 
L 581 3500 
L 1159 3500 
L 1159 2956 
Q 1356 3278 1631 3431 
Q 1906 3584 2284 3584 
Q 2666 3584 2933 3390 
Q 3200 3197 3328 2828 
z
" transform="scale(0.015625)"/>
       <path id="DejaVuSans-62" d="M 3116 1747 
Q 3116 2381 2855 2742 
Q 2594 3103 2138 3103 
Q 1681 3103 1420 2742 
Q 1159 2381 1159 1747 
Q 1159 1113 1420 752 
Q 1681 391 2138 391 
Q 2594 391 2855 752 
Q 3116 1113 3116 1747 
z
M 1159 2969 
Q 1341 3281 1617 3432 
Q 1894 3584 2278 3584 
Q 2916 3584 3314 3078 
Q 3713 2572 3713 1747 
Q 3713 922 3314 415 
Q 2916 -91 2278 -91 
Q 1894 -91 1617 61 
Q 1341 213 1159 525 
L 1159 0 
L 581 0 
L 581 4863 
L 1159 4863 
L 1159 2969 
z
" transform="scale(0.015625)"/>
      </defs>
      <use xlink:href="#DejaVuSans-6f"/>
      <use xlink:href="#DejaVuSans-63" x="61.181641"/>
      <use xlink:href="#DejaVuSans-63" x="116.162109"/>
      <use xlink:href="#DejaVuSans-75" x="171.142578"/>
      <use xlink:href="#DejaVuSans-72" x="234.521484"/>
      <use xlink:href="#DejaVuSans-72" x="273.884766"/>
      <use xlink:href="#DejaVuSans-65" x="312.748047"/>
      <use xlink:href="#DejaVuSans-6e" x="374.271484"/>
      <use xlink:href="#DejaVuSans-63" x="437.650391"/>
      <use xlink:href="#DejaVuSans-65" x="492.630859"/>
      <use xlink:href="#DejaVuSans-73" x="554.154297"/>
      <use xlink:href="#DejaVuSans-2f" x="606.253906"/>
      <use xlink:href="#DejaVuSans-61" x="639.945312"/>
      <use xlink:href="#DejaVuSans-72" x="701.224609"/>
      <use xlink:href="#DejaVuSans-74" x="742.337891"/>
      <use xlink:href="#DejaVuSans-69" x="781.546875"/>
      <use xlink:href="#DejaVuSans-63" x="809.330078"/>
      <use xlink:href="#DejaVuSans-6c" x="864.310547"/>
      <use xlink:href="#DejaVuSans-65" x="892.09375"/>
      <use xlink:href="#DejaVuSans-5f" x="953.617188"/>
      <use xlink:href="#DejaVuSans-6e" x="1003.617188"/>
      <use xlink:href="#DejaVuSans-75" x="1066.996094"/>
      <use xlink:href="#DejaVuSans-6d" x="1130.375"/>
      <use xlink:href="#DejaVuSans-62" x="1227.787109"/>
      <use xlink:href="#DejaVuSans-65" x="1291.263672"/>
      <use xlink:href="#DejaVuSans-72" x="1352.787109"/>
     </g>
    </g>
   </g>
   <g id="line2d_33">
    <path d="M 65.765312 203.159224 
L 82.078095 194.377174 
L 98.390879 203.459252 
L 114.703663 200.056758 
L 131.016446 213.980011 
L 147.32923 169.107493 
L 163.642013 175.462051 
L 179.954797 129.475853 
L 196.26758 176.839935 
L 212.580364 179.19678 
L 228.893147 123.480691 
L 245.205931 120.399338 
L 261.518715 131.393824 
L 277.831498 143.643593 
L 294.144282 164.794276 
L 310.457065 173.71205 
L 326.769849 171.04528 
L 343.082632 75.4353 
L 359.395416 85.596584 
L 375.708199 108.50362 
L 392.020983 94.056792 
L 408.333767 156.43073 
L 424.64655 182.670378 
" clip-path="url(#p7ce9618d7a)" style="fill: none; stroke: #1f77b4; stroke-width: 1.5; stroke-linecap: square"/>
   </g>
   <g id="line2d_34">
    <path d="M 65.765312 196.001993 
L 82.078095 192.319112 
L 98.390879 188.636231 
L 114.703663 184.953351 
L 131.016446 181.27047 
L 147.32923 177.587589 
L 163.642013 173.904708 
L 179.954797 170.221827 
L 196.26758 166.538946 
L 212.580364 162.856066 
L 228.893147 159.173185 
L 245.205931 155.490304 
L 261.518715 151.807423 
L 277.831498 148.124542 
L 294.144282 144.441661 
L 310.457065 140.758781 
L 326.769849 137.0759 
L 343.082632 133.393019 
L 359.395416 129.710138 
L 375.708199 126.027257 
L 392.020983 122.344376 
L 408.333767 118.661496 
L 424.64655 114.978615 
" clip-path="url(#p7ce9618d7a)" style="fill: none; stroke-dasharray: 5.55,2.4; stroke-dashoffset: 0; stroke: #1f77b4; stroke-width: 1.5"/>
   </g>
   <g id="line2d_35">
    <path d="M 65.765312 208.373555 
L 82.078095 204.643943 
L 98.390879 219.216727 
L 114.703663 220.167394 
L 131.016446 223.477887 
L 147.32923 185.369785 
L 163.642013 213.829984 
L 179.954797 182.086926 
L 196.26758 164.57455 
L 212.580364 48.371235 
L 228.893147 98.410616 
L 245.205931 155.67075 
L 261.518715 172.449354 
L 277.831498 210.415952 
L 294.144282 61.144461 
L 310.457065 162.037829 
L 326.769849 164.881943 
L 343.082632 142.749036 
L 359.395416 144.40676 
L 375.708199 175.028443 
L 392.020983 135.083811 
L 408.333767 173.353216 
L 424.64655 188.784526 
" clip-path="url(#p7ce9618d7a)" style="fill: none; stroke: #ff7f0e; stroke-width: 1.5; stroke-linecap: square"/>
   </g>
   <g id="line2d_36">
    <path d="M 65.765312 196.860111 
L 82.078095 194.199029 
L 98.390879 191.537946 
L 114.703663 188.876864 
L 131.016446 186.215781 
L 147.32923 183.554699 
L 163.642013 180.893616 
L 179.954797 178.232534 
L 196.26758 175.571451 
L 212.580364 172.910369 
L 228.893147 170.249286 
L 245.205931 167.588204 
L 261.518715 164.927121 
L 277.831498 162.266039 
L 294.144282 159.604956 
L 310.457065 156.943874 
L 326.769849 154.282791 
L 343.082632 151.621709 
L 359.395416 148.960626 
L 375.708199 146.299544 
L 392.020983 143.638461 
L 408.333767 140.977378 
L 424.64655 138.316296 
" clip-path="url(#p7ce9618d7a)" style="fill: none; stroke-dasharray: 5.55,2.4; stroke-dashoffset: 0; stroke: #ff7f0e; stroke-width: 1.5"/>
   </g>
   <g id="line2d_37">
    <path d="M 65.765312 231.436433 
L 82.078095 144.601289 
L 98.390879 167.683813 
L 114.703663 213.51776 
L 131.016446 213.860648 
L 147.32923 212.654208 
L 163.642013 191.302209 
L 179.954797 135.981021 
L 196.26758 37.757328 
L 212.580364 144.57772 
L 228.893147 204.001229 
L 245.205931 127.365733 
L 261.518715 107.22367 
L 277.831498 133.595408 
L 294.144282 139.972211 
L 310.457065 157.355621 
L 326.769849 142.966916 
L 343.082632 108.871525 
L 359.395416 89.179268 
L 375.708199 136.013256 
L 392.020983 140.807317 
L 408.333767 167.311948 
L 424.64655 199.860549 
" clip-path="url(#p7ce9618d7a)" style="fill: none; stroke: #2ca02c; stroke-width: 1.5; stroke-linecap: square"/>
   </g>
   <g id="line2d_38">
    <path d="M 65.765312 180.842199 
L 82.078095 178.425308 
L 98.390879 176.008416 
L 114.703663 173.591525 
L 131.016446 171.174634 
L 147.32923 168.757742 
L 163.642013 166.340851 
L 179.954797 163.92396 
L 196.26758 161.507069 
L 212.580364 159.090177 
L 228.893147 156.673286 
L 245.205931 154.256395 
L 261.518715 151.839503 
L 277.831498 149.422612 
L 294.144282 147.005721 
L 310.457065 144.58883 
L 326.769849 142.171938 
L 343.082632 139.755047 
L 359.395416 137.338156 
L 375.708199 134.921264 
L 392.020983 132.504373 
L 408.333767 130.087482 
L 424.64655 127.670591 
" clip-path="url(#p7ce9618d7a)" style="fill: none; stroke-dasharray: 5.55,2.4; stroke-dashoffset: 0; stroke: #2ca02c; stroke-width: 1.5"/>
   </g>
   <g id="line2d_39">
    <path d="M 65.765312 196.302489 
L 82.078095 230.160648 
L 98.390879 181.326337 
L 114.703663 229.784632 
L 131.016446 189.329721 
L 147.32923 173.89474 
L 163.642013 197.228798 
L 179.954797 200.045741 
L 196.26758 216.762081 
L 212.580364 218.506489 
L 228.893147 175.864487 
L 245.205931 205.918112 
L 261.518715 183.194517 
L 277.831498 156.185413 
L 294.144282 220.662559 
L 310.457065 202.015378 
L 326.769849 186.985524 
L 343.082632 190.936041 
L 359.395416 191.268237 
L 375.708199 180.053855 
L 392.020983 175.838828 
L 408.333767 140.029854 
L 424.64655 177.060323 
" clip-path="url(#p7ce9618d7a)" style="fill: none; stroke: #d62728; stroke-width: 1.5; stroke-linecap: square"/>
   </g>
   <g id="line2d_40">
    <path d="M 65.765312 209.464738 
L 82.078095 207.890294 
L 98.390879 206.315851 
L 114.703663 204.741408 
L 131.016446 203.166964 
L 147.32923 201.592521 
L 163.642013 200.018078 
L 179.954797 198.443634 
L 196.26758 196.869191 
L 212.580364 195.294748 
L 228.893147 193.720304 
L 245.205931 192.145861 
L 261.518715 190.571418 
L 277.831498 188.996974 
L 294.144282 187.422531 
L 310.457065 185.848088 
L 326.769849 184.273644 
L 343.082632 182.699201 
L 359.395416 181.124757 
L 375.708199 179.550314 
L 392.020983 177.975871 
L 408.333767 176.401427 
L 424.64655 174.826984 
" clip-path="url(#p7ce9618d7a)" style="fill: none; stroke-dasharray: 5.55,2.4; stroke-dashoffset: 0; stroke: #d62728; stroke-width: 1.5"/>
   </g>
   <g id="line2d_41">
    <path d="M 65.765312 251.766891 
L 82.078095 251.766891 
L 98.390879 251.766891 
L 114.703663 251.766891 
L 131.016446 234.817361 
L 147.32923 251.766891 
L 163.642013 251.766891 
L 179.954797 216.85927 
L 196.26758 240.183502 
L 212.580364 223.892142 
L 228.893147 251.766891 
L 245.205931 251.766891 
L 261.518715 251.766891 
L 277.831498 251.766891 
L 294.144282 239.469603 
L 310.457065 212.61215 
L 326.769849 223.80789 
L 343.082632 213.266645 
L 359.395416 212.491361 
L 375.708199 191.287729 
L 392.020983 210.875874 
L 408.333767 234.8073 
L 424.64655 251.766891 
" clip-path="url(#p7ce9618d7a)" style="fill: none; stroke: #9467bd; stroke-width: 1.5; stroke-linecap: square"/>
   </g>
   <g id="line2d_42">
    <path d="M 65.765312 252.251457 
L 82.078095 250.757478 
L 98.390879 249.263498 
L 114.703663 247.769518 
L 131.016446 246.275538 
L 147.32923 244.781558 
L 163.642013 243.287579 
L 179.954797 241.793599 
L 196.26758 240.299619 
L 212.580364 238.805639 
L 228.893147 237.311659 
L 245.205931 235.81768 
L 261.518715 234.3237 
L 277.831498 232.82972 
L 294.144282 231.33574 
L 310.457065 229.841761 
L 326.769849 228.347781 
L 343.082632 226.853801 
L 359.395416 225.359821 
L 375.708199 223.865841 
L 392.020983 222.371862 
L 408.333767 220.877882 
L 424.64655 219.383902 
" clip-path="url(#p7ce9618d7a)" style="fill: none; stroke-dasharray: 5.55,2.4; stroke-dashoffset: 0; stroke: #9467bd; stroke-width: 1.5"/>
   </g>
   <g id="line2d_43">
    <path d="M 65.765312 122.333808 
L 82.078095 179.750577 
L 98.390879 132.164531 
L 114.703663 136.835529 
L 131.016446 163.803115 
L 147.32923 190.931753 
L 163.642013 148.318271 
L 179.954797 188.206987 
L 196.26758 188.553413 
L 212.580364 179.308526 
L 228.893147 163.602914 
L 245.205931 139.830593 
L 261.518715 149.997789 
L 277.831498 156.094245 
L 294.144282 49.485677 
L 310.457065 101.475752 
L 326.769849 52.142737 
L 343.082632 125.706564 
L 359.395416 174.484361 
L 375.708199 164.930905 
L 392.020983 169.996305 
L 408.333767 113.327991 
L 424.64655 142.228063 
" clip-path="url(#p7ce9618d7a)" style="fill: none; stroke: #8c564b; stroke-width: 1.5; stroke-linecap: square"/>
   </g>
   <g id="line2d_44">
    <path d="M 65.765312 161.258735 
L 82.078095 159.77478 
L 98.390879 158.290826 
L 114.703663 156.806871 
L 131.016446 155.322917 
L 147.32923 153.838962 
L 163.642013 152.355008 
L 179.954797 150.871053 
L 196.26758 149.387099 
L 212.580364 147.903144 
L 228.893147 146.41919 
L 245.205931 144.935235 
L 261.518715 143.451281 
L 277.831498 141.967326 
L 294.144282 140.483371 
L 310.457065 138.999417 
L 326.769849 137.515462 
L 343.082632 136.031508 
L 359.395416 134.547553 
L 375.708199 133.063599 
L 392.020983 131.579644 
L 408.333767 130.09569 
L 424.64655 128.611735 
" clip-path="url(#p7ce9618d7a)" style="fill: none; stroke-dasharray: 5.55,2.4; stroke-dashoffset: 0; stroke: #8c564b; stroke-width: 1.5"/>
   </g>
   <g id="line2d_45">
    <path d="M 65.765312 244.073101 
L 82.078095 175.575959 
L 98.390879 251.766891 
L 114.703663 251.766891 
L 131.016446 229.087943 
L 147.32923 229.780053 
L 163.642013 229.670141 
L 179.954797 204.891151 
L 196.26758 234.32953 
L 212.580364 229.302283 
L 228.893147 228.44266 
L 245.205931 183.11156 
L 261.518715 217.182658 
L 277.831498 216.728458 
L 294.144282 196.118822 
L 310.457065 190.182537 
L 326.769849 222.805242 
L 343.082632 218.330667 
L 359.395416 223.611623 
L 375.708199 196.448418 
L 392.020983 193.308425 
L 408.333767 177.729429 
L 424.64655 228.578661 
" clip-path="url(#p7ce9618d7a)" style="fill: none; stroke: #e377c2; stroke-width: 1.5; stroke-linecap: square"/>
   </g>
   <g id="line2d_46">
    <path d="M 65.765312 232.174998 
L 82.078095 230.723607 
L 98.390879 229.272217 
L 114.703663 227.820826 
L 131.016446 226.369435 
L 147.32923 224.918044 
L 163.642013 223.466654 
L 179.954797 222.015263 
L 196.26758 220.563872 
L 212.580364 219.112482 
L 228.893147 217.661091 
L 245.205931 216.2097 
L 261.518715 214.758309 
L 277.831498 213.306919 
L 294.144282 211.855528 
L 310.457065 210.404137 
L 326.769849 208.952746 
L 343.082632 207.501356 
L 359.395416 206.049965 
L 375.708199 204.598574 
L 392.020983 203.147184 
L 408.333767 201.695793 
L 424.64655 200.244402 
" clip-path="url(#p7ce9618d7a)" style="fill: none; stroke-dasharray: 5.55,2.4; stroke-dashoffset: 0; stroke: #e377c2; stroke-width: 1.5"/>
   </g>
   <g id="line2d_47">
    <path d="M 65.765312 251.766891 
L 82.078095 221.745565 
L 98.390879 235.363395 
L 114.703663 240.775762 
L 131.016446 246.156836 
L 147.32923 234.8749 
L 163.642013 251.766891 
L 179.954797 251.766891 
L 196.26758 234.32953 
L 212.580364 218.038171 
L 228.893147 245.646831 
L 245.205931 217.501502 
L 261.518715 223.302718 
L 277.831498 227.949293 
L 294.144282 245.355399 
L 310.457065 229.312345 
L 326.769849 217.075823 
L 343.082632 185.554967 
L 359.395416 212.676847 
L 375.708199 229.747949 
L 392.020983 193.432977 
L 408.333767 218.646029 
L 424.64655 240.172776 
" clip-path="url(#p7ce9618d7a)" style="fill: none; stroke: #7f7f7f; stroke-width: 1.5; stroke-linecap: square"/>
   </g>
   <g id="line2d_48">
    <path d="M 65.765312 244.33658 
L 82.078095 242.965904 
L 98.390879 241.595228 
L 114.703663 240.224552 
L 131.016446 238.853876 
L 147.32923 237.4832 
L 163.642013 236.112523 
L 179.954797 234.741847 
L 196.26758 233.371171 
L 212.580364 232.000495 
L 228.893147 230.629819 
L 245.205931 229.259143 
L 261.518715 227.888467 
L 277.831498 226.517791 
L 294.144282 225.147115 
L 310.457065 223.776439 
L 326.769849 222.405763 
L 343.082632 221.035086 
L 359.395416 219.66441 
L 375.708199 218.293734 
L 392.020983 216.923058 
L 408.333767 215.552382 
L 424.64655 214.181706 
" clip-path="url(#p7ce9618d7a)" style="fill: none; stroke-dasharray: 5.55,2.4; stroke-dashoffset: 0; stroke: #7f7f7f; stroke-width: 1.5"/>
   </g>
   <g id="line2d_49">
    <path d="M 65.765312 225.048031 
L 82.078095 192.796944 
L 98.390879 229.151017 
L 114.703663 209.396087 
L 131.016446 181.683824 
L 147.32923 185.431904 
L 163.642013 191.632212 
L 179.954797 193.550953 
L 196.26758 170.049328 
L 212.580364 144.584403 
L 228.893147 199.047905 
L 245.205931 161.541983 
L 261.518715 188.896089 
L 277.831498 210.551953 
L 294.144282 153.334616 
L 310.457065 179.042532 
L 326.769849 182.504118 
L 343.082632 169.156342 
L 359.395416 173.988997 
L 375.708199 174.892604 
L 392.020983 222.849906 
L 408.333767 156.069208 
L 424.64655 182.476377 
" clip-path="url(#p7ce9618d7a)" style="fill: none; stroke: #bcbd22; stroke-width: 1.5; stroke-linecap: square"/>
   </g>
   <g id="line2d_50">
    <path d="M 65.765312 200.680053 
L 82.078095 199.344228 
L 98.390879 198.008402 
L 114.703663 196.672576 
L 131.016446 195.336751 
L 147.32923 194.000925 
L 163.642013 192.665099 
L 179.954797 191.329274 
L 196.26758 189.993448 
L 212.580364 188.657622 
L 228.893147 187.321797 
L 245.205931 185.985971 
L 261.518715 184.650145 
L 277.831498 183.31432 
L 294.144282 181.978494 
L 310.457065 180.642668 
L 326.769849 179.306843 
L 343.082632 177.971017 
L 359.395416 176.635191 
L 375.708199 175.299365 
L 392.020983 173.96354 
L 408.333767 172.627714 
L 424.64655 171.291888 
" clip-path="url(#p7ce9618d7a)" style="fill: none; stroke-dasharray: 5.55,2.4; stroke-dashoffset: 0; stroke: #bcbd22; stroke-width: 1.5"/>
   </g>
   <g id="line2d_51">
    <path d="M 65.765312 242.149653 
L 82.078095 251.766891 
L 98.390879 251.766891 
L 114.703663 251.766891 
L 131.016446 251.766891 
L 147.32923 251.766891 
L 163.642013 251.766891 
L 179.954797 251.766891 
L 196.26758 251.766891 
L 212.580364 218.038171 
L 228.893147 216.479353 
L 245.205931 251.766891 
L 261.518715 251.766891 
L 277.831498 251.766891 
L 294.144282 251.766891 
L 310.457065 251.766891 
L 326.769849 251.766891 
L 343.082632 251.766891 
L 359.395416 234.651121 
L 375.708199 213.217547 
L 392.020983 210.875874 
L 408.333767 212.344448 
L 424.64655 222.918692 
" clip-path="url(#p7ce9618d7a)" style="fill: none; stroke: #17becf; stroke-width: 1.5; stroke-linecap: square"/>
   </g>
   <g id="line2d_52">
    <path d="M 65.765312 255.303883 
L 82.078095 254.020045 
L 98.390879 252.736207 
L 114.703663 251.452368 
L 131.016446 250.16853 
L 147.32923 248.884692 
L 163.642013 247.600854 
L 179.954797 246.317015 
L 196.26758 245.033177 
L 212.580364 243.749339 
L 228.893147 242.4655 
L 245.205931 241.181662 
L 261.518715 239.897824 
L 277.831498 238.613986 
L 294.144282 237.330147 
L 310.457065 236.046309 
L 326.769849 234.762471 
L 343.082632 233.478633 
L 359.395416 232.194794 
L 375.708199 230.910956 
L 392.020983 229.627118 
L 408.333767 228.343279 
L 424.64655 227.059441 
" clip-path="url(#p7ce9618d7a)" style="fill: none; stroke-dasharray: 5.55,2.4; stroke-dashoffset: 0; stroke: #17becf; stroke-width: 1.5"/>
   </g>
   <g id="patch_3">
    <path d="M 47.82125 266.181211 
L 47.82125 26.88 
" style="fill: none; stroke: #000000; stroke-width: 0.8; stroke-linejoin: miter; stroke-linecap: square"/>
   </g>
   <g id="patch_4">
    <path d="M 442.590612 266.181211 
L 442.590612 26.88 
" style="fill: none; stroke: #000000; stroke-width: 0.8; stroke-linejoin: miter; stroke-linecap: square"/>
   </g>
   <g id="patch_5">
    <path d="M 47.82125 266.181211 
L 442.590612 266.181211 
" style="fill: none; stroke: #000000; stroke-width: 0.8; stroke-linejoin: miter; stroke-linecap: square"/>
   </g>
   <g id="patch_6">
    <path d="M 47.82125 26.88 
L 442.590612 26.88 
" style="fill: none; stroke: #000000; stroke-width: 0.8; stroke-linejoin: miter; stroke-linecap: square"/>
   </g>
   <g id="text_35">
    <!-- cosmopolitan -->
    <g transform="translate(204.948744 20.88)scale(0.12 -0.12)">
     <defs>
      <path id="DejaVuSans-70" d="M 1159 525 
L 1159 -1331 
L 581 -1331 
L 581 3500 
L 1159 3500 
L 1159 2969 
Q 1341 3281 1617 3432 
Q 1894 3584 2278 3584 
Q 2916 3584 3314 3078 
Q 3713 2572 3713 1747 
Q 3713 922 3314 415 
Q 2916 -91 2278 -91 
Q 1894 -91 1617 61 
Q 1341 213 1159 525 
z
M 3116 1747 
Q 3116 2381 2855 2742 
Q 2594 3103 2138 3103 
Q 1681 3103 1420 2742 
Q 1159 2381 1159 1747 
Q 1159 1113 1420 752 
Q 1681 391 2138 391 
Q 2594 391 2855 752 
Q 3116 1113 3116 1747 
z
" transform="scale(0.015625)"/>
     </defs>
     <use xlink:href="#DejaVuSans-63"/>
     <use xlink:href="#DejaVuSans-6f" x="54.980469"/>
     <use xlink:href="#DejaVuSans-73" x="116.162109"/>
     <use xlink:href="#DejaVuSans-6d" x="168.261719"/>
     <use xlink:href="#DejaVuSans-6f" x="265.673828"/>
     <use xlink:href="#DejaVuSans-70" x="326.855469"/>
     <use xlink:href="#DejaVuSans-6f" x="390.332031"/>
     <use xlink:href="#DejaVuSans-6c" x="451.513672"/>
     <use xlink:href="#DejaVuSans-69" x="479.296875"/>
     <use xlink:href="#DejaVuSans-74" x="507.080078"/>
     <use xlink:href="#DejaVuSans-61" x="546.289062"/>
     <use xlink:href="#DejaVuSans-6e" x="607.568359"/>
    </g>
   </g>
   <g id="legend_1">
    <g id="patch_7">
     <path d="M 54.82125 181.66125 
L 279.855625 181.66125 
Q 281.855625 181.66125 281.855625 179.66125 
L 281.855625 33.88 
Q 281.855625 31.88 279.855625 31.88 
L 54.82125 31.88 
Q 52.82125 31.88 52.82125 33.88 
L 52.82125 179.66125 
Q 52.82125 181.66125 54.82125 181.66125 
z
" style="fill: #ffffff; opacity: 0.8; stroke: #cccccc; stroke-linejoin: miter"/>
    </g>
    <g id="line2d_53">
     <path d="M 56.82125 39.978437 
L 66.82125 39.978437 
L 76.82125 39.978437 
" style="fill: none; stroke: #1f77b4; stroke-width: 1.5; stroke-linecap: square"/>
    </g>
    <g id="text_36">
     <!-- 24-Frau :  0.01368 -->
     <g transform="translate(84.82125 43.478437)scale(0.1 -0.1)">
      <defs>
       <path id="DejaVuSans-2d" d="M 313 2009 
L 1997 2009 
L 1997 1497 
L 313 1497 
L 313 2009 
z
" transform="scale(0.015625)"/>
       <path id="DejaVuSans-46" d="M 628 4666 
L 3309 4666 
L 3309 4134 
L 1259 4134 
L 1259 2759 
L 3109 2759 
L 3109 2228 
L 1259 2228 
L 1259 0 
L 628 0 
L 628 4666 
z
" transform="scale(0.015625)"/>
       <path id="DejaVuSans-20" transform="scale(0.015625)"/>
       <path id="DejaVuSans-3a" d="M 750 794 
L 1409 794 
L 1409 0 
L 750 0 
L 750 794 
z
M 750 3309 
L 1409 3309 
L 1409 2516 
L 750 2516 
L 750 3309 
z
" transform="scale(0.015625)"/>
      </defs>
      <use xlink:href="#DejaVuSans-32"/>
      <use xlink:href="#DejaVuSans-34" x="63.623047"/>
      <use xlink:href="#DejaVuSans-2d" x="127.246094"/>
      <use xlink:href="#DejaVuSans-46" x="163.330078"/>
      <use xlink:href="#DejaVuSans-72" x="213.599609"/>
      <use xlink:href="#DejaVuSans-61" x="254.712891"/>
      <use xlink:href="#DejaVuSans-75" x="315.992188"/>
      <use xlink:href="#DejaVuSans-20" x="379.371094"/>
      <use xlink:href="#DejaVuSans-3a" x="411.158203"/>
      <use xlink:href="#DejaVuSans-20" x="444.849609"/>
      <use xlink:href="#DejaVuSans-20" x="476.636719"/>
      <use xlink:href="#DejaVuSans-30" x="508.423828"/>
      <use xlink:href="#DejaVuSans-2e" x="572.046875"/>
      <use xlink:href="#DejaVuSans-30" x="603.833984"/>
      <use xlink:href="#DejaVuSans-31" x="667.457031"/>
      <use xlink:href="#DejaVuSans-33" x="731.080078"/>
      <use xlink:href="#DejaVuSans-36" x="794.703125"/>
      <use xlink:href="#DejaVuSans-38" x="858.326172"/>
     </g>
    </g>
    <g id="line2d_54">
     <path d="M 56.82125 54.656563 
L 66.82125 54.656563 
L 76.82125 54.656563 
" style="fill: none; stroke: #ff7f0e; stroke-width: 1.5; stroke-linecap: square"/>
    </g>
    <g id="text_37">
     <!-- 12-Trends :  0.00988 -->
     <g transform="translate(84.82125 58.156563)scale(0.1 -0.1)">
      <defs>
       <path id="DejaVuSans-54" d="M -19 4666 
L 3928 4666 
L 3928 4134 
L 2272 4134 
L 2272 0 
L 1638 0 
L 1638 4134 
L -19 4134 
L -19 4666 
z
" transform="scale(0.015625)"/>
       <path id="DejaVuSans-64" d="M 2906 2969 
L 2906 4863 
L 3481 4863 
L 3481 0 
L 2906 0 
L 2906 525 
Q 2725 213 2448 61 
Q 2172 -91 1784 -91 
Q 1150 -91 751 415 
Q 353 922 353 1747 
Q 353 2572 751 3078 
Q 1150 3584 1784 3584 
Q 2172 3584 2448 3432 
Q 2725 3281 2906 2969 
z
M 947 1747 
Q 947 1113 1208 752 
Q 1469 391 1925 391 
Q 2381 391 2643 752 
Q 2906 1113 2906 1747 
Q 2906 2381 2643 2742 
Q 2381 3103 1925 3103 
Q 1469 3103 1208 2742 
Q 947 2381 947 1747 
z
" transform="scale(0.015625)"/>
      </defs>
      <use xlink:href="#DejaVuSans-31"/>
      <use xlink:href="#DejaVuSans-32" x="63.623047"/>
      <use xlink:href="#DejaVuSans-2d" x="127.246094"/>
      <use xlink:href="#DejaVuSans-54" x="154.205078"/>
      <use xlink:href="#DejaVuSans-72" x="200.539062"/>
      <use xlink:href="#DejaVuSans-65" x="239.402344"/>
      <use xlink:href="#DejaVuSans-6e" x="300.925781"/>
      <use xlink:href="#DejaVuSans-64" x="364.304688"/>
      <use xlink:href="#DejaVuSans-73" x="427.78125"/>
      <use xlink:href="#DejaVuSans-20" x="479.880859"/>
      <use xlink:href="#DejaVuSans-3a" x="511.667969"/>
      <use xlink:href="#DejaVuSans-20" x="545.359375"/>
      <use xlink:href="#DejaVuSans-20" x="577.146484"/>
      <use xlink:href="#DejaVuSans-30" x="608.933594"/>
      <use xlink:href="#DejaVuSans-2e" x="672.556641"/>
      <use xlink:href="#DejaVuSans-30" x="704.34375"/>
      <use xlink:href="#DejaVuSans-30" x="767.966797"/>
      <use xlink:href="#DejaVuSans-39" x="831.589844"/>
      <use xlink:href="#DejaVuSans-38" x="895.212891"/>
      <use xlink:href="#DejaVuSans-38" x="958.835938"/>
     </g>
    </g>
    <g id="line2d_55">
     <path d="M 56.82125 69.334688 
L 66.82125 69.334688 
L 76.82125 69.334688 
" style="fill: none; stroke: #2ca02c; stroke-width: 1.5; stroke-linecap: square"/>
    </g>
    <g id="text_38">
     <!-- 3-Partner :  0.00898 -->
     <g transform="translate(84.82125 72.834688)scale(0.1 -0.1)">
      <defs>
       <path id="DejaVuSans-50" d="M 1259 4147 
L 1259 2394 
L 2053 2394 
Q 2494 2394 2734 2622 
Q 2975 2850 2975 3272 
Q 2975 3691 2734 3919 
Q 2494 4147 2053 4147 
L 1259 4147 
z
M 628 4666 
L 2053 4666 
Q 2838 4666 3239 4311 
Q 3641 3956 3641 3272 
Q 3641 2581 3239 2228 
Q 2838 1875 2053 1875 
L 1259 1875 
L 1259 0 
L 628 0 
L 628 4666 
z
" transform="scale(0.015625)"/>
      </defs>
      <use xlink:href="#DejaVuSans-33"/>
      <use xlink:href="#DejaVuSans-2d" x="63.623047"/>
      <use xlink:href="#DejaVuSans-50" x="99.707031"/>
      <use xlink:href="#DejaVuSans-61" x="155.509766"/>
      <use xlink:href="#DejaVuSans-72" x="216.789062"/>
      <use xlink:href="#DejaVuSans-74" x="257.902344"/>
      <use xlink:href="#DejaVuSans-6e" x="297.111328"/>
      <use xlink:href="#DejaVuSans-65" x="360.490234"/>
      <use xlink:href="#DejaVuSans-72" x="422.013672"/>
      <use xlink:href="#DejaVuSans-20" x="463.126953"/>
      <use xlink:href="#DejaVuSans-3a" x="494.914062"/>
      <use xlink:href="#DejaVuSans-20" x="528.605469"/>
      <use xlink:href="#DejaVuSans-20" x="560.392578"/>
      <use xlink:href="#DejaVuSans-30" x="592.179688"/>
      <use xlink:href="#DejaVuSans-2e" x="655.802734"/>
      <use xlink:href="#DejaVuSans-30" x="687.589844"/>
      <use xlink:href="#DejaVuSans-30" x="751.212891"/>
      <use xlink:href="#DejaVuSans-38" x="814.835938"/>
      <use xlink:href="#DejaVuSans-39" x="878.458984"/>
      <use xlink:href="#DejaVuSans-38" x="942.082031"/>
     </g>
    </g>
    <g id="line2d_56">
     <path d="M 56.82125 84.012812 
L 66.82125 84.012812 
L 76.82125 84.012812 
" style="fill: none; stroke: #d62728; stroke-width: 1.5; stroke-linecap: square"/>
    </g>
    <g id="text_39">
     <!-- 22-Finanzen verbessern :  0.00585 -->
     <g transform="translate(84.82125 87.512812)scale(0.1 -0.1)">
      <defs>
       <path id="DejaVuSans-7a" d="M 353 3500 
L 3084 3500 
L 3084 2975 
L 922 459 
L 3084 459 
L 3084 0 
L 275 0 
L 275 525 
L 2438 3041 
L 353 3041 
L 353 3500 
z
" transform="scale(0.015625)"/>
       <path id="DejaVuSans-76" d="M 191 3500 
L 800 3500 
L 1894 563 
L 2988 3500 
L 3597 3500 
L 2284 0 
L 1503 0 
L 191 3500 
z
" transform="scale(0.015625)"/>
      </defs>
      <use xlink:href="#DejaVuSans-32"/>
      <use xlink:href="#DejaVuSans-32" x="63.623047"/>
      <use xlink:href="#DejaVuSans-2d" x="127.246094"/>
      <use xlink:href="#DejaVuSans-46" x="163.330078"/>
      <use xlink:href="#DejaVuSans-69" x="213.599609"/>
      <use xlink:href="#DejaVuSans-6e" x="241.382812"/>
      <use xlink:href="#DejaVuSans-61" x="304.761719"/>
      <use xlink:href="#DejaVuSans-6e" x="366.041016"/>
      <use xlink:href="#DejaVuSans-7a" x="429.419922"/>
      <use xlink:href="#DejaVuSans-65" x="481.910156"/>
      <use xlink:href="#DejaVuSans-6e" x="543.433594"/>
      <use xlink:href="#DejaVuSans-20" x="606.8125"/>
      <use xlink:href="#DejaVuSans-76" x="638.599609"/>
      <use xlink:href="#DejaVuSans-65" x="697.779297"/>
      <use xlink:href="#DejaVuSans-72" x="759.302734"/>
      <use xlink:href="#DejaVuSans-62" x="800.416016"/>
      <use xlink:href="#DejaVuSans-65" x="863.892578"/>
      <use xlink:href="#DejaVuSans-73" x="925.416016"/>
      <use xlink:href="#DejaVuSans-73" x="977.515625"/>
      <use xlink:href="#DejaVuSans-65" x="1029.615234"/>
      <use xlink:href="#DejaVuSans-72" x="1091.138672"/>
      <use xlink:href="#DejaVuSans-6e" x="1130.501953"/>
      <use xlink:href="#DejaVuSans-20" x="1193.880859"/>
      <use xlink:href="#DejaVuSans-3a" x="1225.667969"/>
      <use xlink:href="#DejaVuSans-20" x="1259.359375"/>
      <use xlink:href="#DejaVuSans-20" x="1291.146484"/>
      <use xlink:href="#DejaVuSans-30" x="1322.933594"/>
      <use xlink:href="#DejaVuSans-2e" x="1386.556641"/>
      <use xlink:href="#DejaVuSans-30" x="1418.34375"/>
      <use xlink:href="#DejaVuSans-30" x="1481.966797"/>
      <use xlink:href="#DejaVuSans-35" x="1545.589844"/>
      <use xlink:href="#DejaVuSans-38" x="1609.212891"/>
      <use xlink:href="#DejaVuSans-35" x="1672.835938"/>
     </g>
    </g>
    <g id="line2d_57">
     <path d="M 56.82125 98.690938 
L 66.82125 98.690938 
L 76.82125 98.690938 
" style="fill: none; stroke: #9467bd; stroke-width: 1.5; stroke-linecap: square"/>
    </g>
    <g id="text_40">
     <!-- 72-trotz Liebe :  0.00555 -->
     <g transform="translate(84.82125 102.190938)scale(0.1 -0.1)">
      <defs>
       <path id="DejaVuSans-4c" d="M 628 4666 
L 1259 4666 
L 1259 531 
L 3531 531 
L 3531 0 
L 628 0 
L 628 4666 
z
" transform="scale(0.015625)"/>
      </defs>
      <use xlink:href="#DejaVuSans-37"/>
      <use xlink:href="#DejaVuSans-32" x="63.623047"/>
      <use xlink:href="#DejaVuSans-2d" x="127.246094"/>
      <use xlink:href="#DejaVuSans-74" x="163.330078"/>
      <use xlink:href="#DejaVuSans-72" x="202.539062"/>
      <use xlink:href="#DejaVuSans-6f" x="241.402344"/>
      <use xlink:href="#DejaVuSans-74" x="302.583984"/>
      <use xlink:href="#DejaVuSans-7a" x="341.792969"/>
      <use xlink:href="#DejaVuSans-20" x="394.283203"/>
      <use xlink:href="#DejaVuSans-4c" x="426.070312"/>
      <use xlink:href="#DejaVuSans-69" x="481.783203"/>
      <use xlink:href="#DejaVuSans-65" x="509.566406"/>
      <use xlink:href="#DejaVuSans-62" x="571.089844"/>
      <use xlink:href="#DejaVuSans-65" x="634.566406"/>
      <use xlink:href="#DejaVuSans-20" x="696.089844"/>
      <use xlink:href="#DejaVuSans-3a" x="727.876953"/>
      <use xlink:href="#DejaVuSans-20" x="761.568359"/>
      <use xlink:href="#DejaVuSans-20" x="793.355469"/>
      <use xlink:href="#DejaVuSans-30" x="825.142578"/>
      <use xlink:href="#DejaVuSans-2e" x="888.765625"/>
      <use xlink:href="#DejaVuSans-30" x="920.552734"/>
      <use xlink:href="#DejaVuSans-30" x="984.175781"/>
      <use xlink:href="#DejaVuSans-35" x="1047.798828"/>
      <use xlink:href="#DejaVuSans-35" x="1111.421875"/>
      <use xlink:href="#DejaVuSans-35" x="1175.044922"/>
     </g>
    </g>
    <g id="line2d_58">
     <path d="M 56.82125 113.369062 
L 66.82125 113.369062 
L 76.82125 113.369062 
" style="fill: none; stroke: #8c564b; stroke-width: 1.5; stroke-linecap: square"/>
    </g>
    <g id="text_41">
     <!-- 9-Mode :  0.00551 -->
     <g transform="translate(84.82125 116.869062)scale(0.1 -0.1)">
      <defs>
       <path id="DejaVuSans-4d" d="M 628 4666 
L 1569 4666 
L 2759 1491 
L 3956 4666 
L 4897 4666 
L 4897 0 
L 4281 0 
L 4281 4097 
L 3078 897 
L 2444 897 
L 1241 4097 
L 1241 0 
L 628 0 
L 628 4666 
z
" transform="scale(0.015625)"/>
      </defs>
      <use xlink:href="#DejaVuSans-39"/>
      <use xlink:href="#DejaVuSans-2d" x="63.623047"/>
      <use xlink:href="#DejaVuSans-4d" x="99.707031"/>
      <use xlink:href="#DejaVuSans-6f" x="185.986328"/>
      <use xlink:href="#DejaVuSans-64" x="247.167969"/>
      <use xlink:href="#DejaVuSans-65" x="310.644531"/>
      <use xlink:href="#DejaVuSans-20" x="372.167969"/>
      <use xlink:href="#DejaVuSans-3a" x="403.955078"/>
      <use xlink:href="#DejaVuSans-20" x="437.646484"/>
      <use xlink:href="#DejaVuSans-20" x="469.433594"/>
      <use xlink:href="#DejaVuSans-30" x="501.220703"/>
      <use xlink:href="#DejaVuSans-2e" x="564.84375"/>
      <use xlink:href="#DejaVuSans-30" x="596.630859"/>
      <use xlink:href="#DejaVuSans-30" x="660.253906"/>
      <use xlink:href="#DejaVuSans-35" x="723.876953"/>
      <use xlink:href="#DejaVuSans-35" x="787.5"/>
      <use xlink:href="#DejaVuSans-31" x="851.123047"/>
     </g>
    </g>
    <g id="line2d_59">
     <path d="M 56.82125 128.047188 
L 66.82125 128.047188 
L 76.82125 128.047188 
" style="fill: none; stroke: #e377c2; stroke-width: 1.5; stroke-linecap: square"/>
    </g>
    <g id="text_42">
     <!-- 46-Trend :  0.00539 -->
     <g transform="translate(84.82125 131.547188)scale(0.1 -0.1)">
      <use xlink:href="#DejaVuSans-34"/>
      <use xlink:href="#DejaVuSans-36" x="63.623047"/>
      <use xlink:href="#DejaVuSans-2d" x="127.246094"/>
      <use xlink:href="#DejaVuSans-54" x="154.205078"/>
      <use xlink:href="#DejaVuSans-72" x="200.539062"/>
      <use xlink:href="#DejaVuSans-65" x="239.402344"/>
      <use xlink:href="#DejaVuSans-6e" x="300.925781"/>
      <use xlink:href="#DejaVuSans-64" x="364.304688"/>
      <use xlink:href="#DejaVuSans-20" x="427.78125"/>
      <use xlink:href="#DejaVuSans-3a" x="459.568359"/>
      <use xlink:href="#DejaVuSans-20" x="493.259766"/>
      <use xlink:href="#DejaVuSans-20" x="525.046875"/>
      <use xlink:href="#DejaVuSans-30" x="556.833984"/>
      <use xlink:href="#DejaVuSans-2e" x="620.457031"/>
      <use xlink:href="#DejaVuSans-30" x="652.244141"/>
      <use xlink:href="#DejaVuSans-30" x="715.867188"/>
      <use xlink:href="#DejaVuSans-35" x="779.490234"/>
      <use xlink:href="#DejaVuSans-33" x="843.113281"/>
      <use xlink:href="#DejaVuSans-39" x="906.736328"/>
     </g>
    </g>
    <g id="line2d_60">
     <path d="M 56.82125 142.725312 
L 66.82125 142.725312 
L 76.82125 142.725312 
" style="fill: none; stroke: #7f7f7f; stroke-width: 1.5; stroke-linecap: square"/>
    </g>
    <g id="text_43">
     <!-- 33-Haare :  0.00509 -->
     <g transform="translate(84.82125 146.225312)scale(0.1 -0.1)">
      <defs>
       <path id="DejaVuSans-48" d="M 628 4666 
L 1259 4666 
L 1259 2753 
L 3553 2753 
L 3553 4666 
L 4184 4666 
L 4184 0 
L 3553 0 
L 3553 2222 
L 1259 2222 
L 1259 0 
L 628 0 
L 628 4666 
z
" transform="scale(0.015625)"/>
      </defs>
      <use xlink:href="#DejaVuSans-33"/>
      <use xlink:href="#DejaVuSans-33" x="63.623047"/>
      <use xlink:href="#DejaVuSans-2d" x="127.246094"/>
      <use xlink:href="#DejaVuSans-48" x="163.330078"/>
      <use xlink:href="#DejaVuSans-61" x="238.525391"/>
      <use xlink:href="#DejaVuSans-61" x="299.804688"/>
      <use xlink:href="#DejaVuSans-72" x="361.083984"/>
      <use xlink:href="#DejaVuSans-65" x="399.947266"/>
      <use xlink:href="#DejaVuSans-20" x="461.470703"/>
      <use xlink:href="#DejaVuSans-3a" x="493.257812"/>
      <use xlink:href="#DejaVuSans-20" x="526.949219"/>
      <use xlink:href="#DejaVuSans-20" x="558.736328"/>
      <use xlink:href="#DejaVuSans-30" x="590.523438"/>
      <use xlink:href="#DejaVuSans-2e" x="654.146484"/>
      <use xlink:href="#DejaVuSans-30" x="685.933594"/>
      <use xlink:href="#DejaVuSans-30" x="749.556641"/>
      <use xlink:href="#DejaVuSans-35" x="813.179688"/>
      <use xlink:href="#DejaVuSans-30" x="876.802734"/>
      <use xlink:href="#DejaVuSans-39" x="940.425781"/>
     </g>
    </g>
    <g id="line2d_61">
     <path d="M 56.82125 157.403437 
L 66.82125 157.403437 
L 76.82125 157.403437 
" style="fill: none; stroke: #bcbd22; stroke-width: 1.5; stroke-linecap: square"/>
    </g>
    <g id="text_44">
     <!-- 10-Haut :  0.00496 -->
     <g transform="translate(84.82125 160.903437)scale(0.1 -0.1)">
      <use xlink:href="#DejaVuSans-31"/>
      <use xlink:href="#DejaVuSans-30" x="63.623047"/>
      <use xlink:href="#DejaVuSans-2d" x="127.246094"/>
      <use xlink:href="#DejaVuSans-48" x="163.330078"/>
      <use xlink:href="#DejaVuSans-61" x="238.525391"/>
      <use xlink:href="#DejaVuSans-75" x="299.804688"/>
      <use xlink:href="#DejaVuSans-74" x="363.183594"/>
      <use xlink:href="#DejaVuSans-20" x="402.392578"/>
      <use xlink:href="#DejaVuSans-3a" x="434.179688"/>
      <use xlink:href="#DejaVuSans-20" x="467.871094"/>
      <use xlink:href="#DejaVuSans-20" x="499.658203"/>
      <use xlink:href="#DejaVuSans-30" x="531.445312"/>
      <use xlink:href="#DejaVuSans-2e" x="595.068359"/>
      <use xlink:href="#DejaVuSans-30" x="626.855469"/>
      <use xlink:href="#DejaVuSans-30" x="690.478516"/>
      <use xlink:href="#DejaVuSans-34" x="754.101562"/>
      <use xlink:href="#DejaVuSans-39" x="817.724609"/>
      <use xlink:href="#DejaVuSans-36" x="881.347656"/>
     </g>
    </g>
    <g id="line2d_62">
     <path d="M 56.82125 172.081562 
L 66.82125 172.081562 
L 76.82125 172.081562 
" style="fill: none; stroke: #17becf; stroke-width: 1.5; stroke-linecap: square"/>
    </g>
    <g id="text_45">
     <!-- 54-Vorbilder in Deutschland :  0.00477 -->
     <g transform="translate(84.82125 175.581562)scale(0.1 -0.1)">
      <defs>
       <path id="DejaVuSans-56" d="M 1831 0 
L 50 4666 
L 709 4666 
L 2188 738 
L 3669 4666 
L 4325 4666 
L 2547 0 
L 1831 0 
z
" transform="scale(0.015625)"/>
       <path id="DejaVuSans-68" d="M 3513 2113 
L 3513 0 
L 2938 0 
L 2938 2094 
Q 2938 2591 2744 2837 
Q 2550 3084 2163 3084 
Q 1697 3084 1428 2787 
Q 1159 2491 1159 1978 
L 1159 0 
L 581 0 
L 581 4863 
L 1159 4863 
L 1159 2956 
Q 1366 3272 1645 3428 
Q 1925 3584 2291 3584 
Q 2894 3584 3203 3211 
Q 3513 2838 3513 2113 
z
" transform="scale(0.015625)"/>
      </defs>
      <use xlink:href="#DejaVuSans-35"/>
      <use xlink:href="#DejaVuSans-34" x="63.623047"/>
      <use xlink:href="#DejaVuSans-2d" x="127.246094"/>
      <use xlink:href="#DejaVuSans-56" x="157.455078"/>
      <use xlink:href="#DejaVuSans-6f" x="218.113281"/>
      <use xlink:href="#DejaVuSans-72" x="279.294922"/>
      <use xlink:href="#DejaVuSans-62" x="320.408203"/>
      <use xlink:href="#DejaVuSans-69" x="383.884766"/>
      <use xlink:href="#DejaVuSans-6c" x="411.667969"/>
      <use xlink:href="#DejaVuSans-64" x="439.451172"/>
      <use xlink:href="#DejaVuSans-65" x="502.927734"/>
      <use xlink:href="#DejaVuSans-72" x="564.451172"/>
      <use xlink:href="#DejaVuSans-20" x="605.564453"/>
      <use xlink:href="#DejaVuSans-69" x="637.351562"/>
      <use xlink:href="#DejaVuSans-6e" x="665.134766"/>
      <use xlink:href="#DejaVuSans-20" x="728.513672"/>
      <use xlink:href="#DejaVuSans-44" x="760.300781"/>
      <use xlink:href="#DejaVuSans-65" x="837.302734"/>
      <use xlink:href="#DejaVuSans-75" x="898.826172"/>
      <use xlink:href="#DejaVuSans-74" x="962.205078"/>
      <use xlink:href="#DejaVuSans-73" x="1001.414062"/>
      <use xlink:href="#DejaVuSans-63" x="1053.513672"/>
      <use xlink:href="#DejaVuSans-68" x="1108.494141"/>
      <use xlink:href="#DejaVuSans-6c" x="1171.873047"/>
      <use xlink:href="#DejaVuSans-61" x="1199.65625"/>
      <use xlink:href="#DejaVuSans-6e" x="1260.935547"/>
      <use xlink:href="#DejaVuSans-64" x="1324.314453"/>
      <use xlink:href="#DejaVuSans-20" x="1387.791016"/>
      <use xlink:href="#DejaVuSans-3a" x="1419.578125"/>
      <use xlink:href="#DejaVuSans-20" x="1453.269531"/>
      <use xlink:href="#DejaVuSans-20" x="1485.056641"/>
      <use xlink:href="#DejaVuSans-30" x="1516.84375"/>
      <use xlink:href="#DejaVuSans-2e" x="1580.466797"/>
      <use xlink:href="#DejaVuSans-30" x="1612.253906"/>
      <use xlink:href="#DejaVuSans-30" x="1675.876953"/>
      <use xlink:href="#DejaVuSans-34" x="1739.5"/>
      <use xlink:href="#DejaVuSans-37" x="1803.123047"/>
      <use xlink:href="#DejaVuSans-37" x="1866.746094"/>
     </g>
    </g>
   </g>
  </g>
 </g>
 <defs>
  <clipPath id="p7ce9618d7a">
   <rect x="47.82125" y="26.88" width="394.769362" height="239.301211"/>
  </clipPath>
 </defs>
</svg>
